<svg xmlns="http://www.w3.org/2000/svg" xmlns:xlink="http://www.w3.org/1999/xlink" contentStyleType="text/css" data-diagram-type="ACTIVITY" height="892px" preserveAspectRatio="none" style="width:1117px;height:892px;background:#FFFFFF;" version="1.1" viewBox="0 0 1117 892" width="1117px" zoomAndPan="magnify"><title>Personal Budget Tracker - Activity Diagram: Adding an Expense</title><defs/><g><g class="title" data-source-line="1"><text fill="#000000" font-family="sans-serif" font-size="14" font-weight="bold" lengthAdjust="spacing" textLength="504.1846" x="305.2297" y="32.9951">Personal Budget Tracker - Activity Diagram: Adding an Expense</text></g><ellipse cx="746.6284" cy="57.2969" fill="#222222" rx="10" ry="10" style="stroke:#222222;stroke-width:1;"/><rect fill="#F1F1F1" height="33.9688" rx="12.5" ry="12.5" style="stroke:#181818;stroke-width:0.5;" width="173.2168" x="660.02" y="87.2969"/><text fill="#000000" font-family="sans-serif" font-size="12" lengthAdjust="spacing" textLength="153.2168" x="670.02" y="108.4355">User logs into the system</text><polygon fill="#F1F1F1" points="698.5625,141.2656,794.6943,141.2656,806.6943,153.2656,794.6943,165.2656,698.5625,165.2656,686.5625,153.2656,698.5625,141.2656" style="stroke:#181818;stroke-width:0.5;"/><text fill="#000000" font-family="sans-serif" font-size="11" lengthAdjust="spacing" textLength="96.1318" x="698.5625" y="157.0737">Login successful?</text><text fill="#000000" font-family="sans-serif" font-size="11" lengthAdjust="spacing" textLength="19.0083" x="667.5542" y="150.6714">yes</text><text fill="#000000" font-family="sans-serif" font-size="11" lengthAdjust="spacing" textLength="13.7017" x="806.6943" y="150.6714">no</text><rect fill="#F1F1F1" height="33.9688" rx="12.5" ry="12.5" style="stroke:#181818;stroke-width:0.5;" width="184.9297" x="370.7866" y="175.2656"/><text fill="#000000" font-family="sans-serif" font-size="12" lengthAdjust="spacing" textLength="164.9297" x="380.7866" y="196.4043">System displays dashboard</text><rect fill="#F1F1F1" height="33.9688" rx="12.5" ry="12.5" style="stroke:#181818;stroke-width:0.5;" width="186.1074" x="370.1978" y="229.2344"/><text fill="#000000" font-family="sans-serif" font-size="12" lengthAdjust="spacing" textLength="166.1074" x="380.1978" y="250.373">User selects "Add Expense"</text><rect fill="#F1F1F1" height="33.9688" rx="12.5" ry="12.5" style="stroke:#181818;stroke-width:0.5;" width="239.5098" x="343.4966" y="283.2031"/><text fill="#000000" font-family="sans-serif" font-size="12" lengthAdjust="spacing" textLength="219.5098" x="353.4966" y="304.3418">System displays expense entry form</text><rect fill="#555555" height="6" rx="2.5" ry="2.5" style="stroke:#555555;stroke-width:1;" width="908.3667" x="11" y="337.1719"/><rect fill="#F1F1F1" height="33.9688" rx="12.5" ry="12.5" style="stroke:#181818;stroke-width:0.5;" width="144.6934" x="23" y="363.1719"/><text fill="#000000" font-family="sans-serif" font-size="12" lengthAdjust="spacing" textLength="124.6934" x="33" y="384.3105">User selects account</text><rect fill="#F1F1F1" height="33.9688" rx="12.5" ry="12.5" style="stroke:#181818;stroke-width:0.5;" width="149.9199" x="191.8296" y="363.1719"/><text fill="#000000" font-family="sans-serif" font-size="12" lengthAdjust="spacing" textLength="129.9199" x="201.8296" y="384.3105">User selects category</text><rect fill="#F1F1F1" height="33.9688" rx="12.5" ry="12.5" style="stroke:#181818;stroke-width:0.5;" width="139.543" x="369.7495" y="363.1719"/><text fill="#000000" font-family="sans-serif" font-size="12" lengthAdjust="spacing" textLength="119.543" x="379.7495" y="384.3105">User enters amount</text><rect fill="#F1F1F1" height="33.9688" rx="12.5" ry="12.5" style="stroke:#181818;stroke-width:0.5;" width="120.3008" x="537.2925" y="363.1719"/><text fill="#000000" font-family="sans-serif" font-size="12" lengthAdjust="spacing" textLength="100.3008" x="547.2925" y="384.3105">User enters date</text><rect fill="#F1F1F1" height="33.9688" rx="12.5" ry="12.5" style="stroke:#181818;stroke-width:0.5;" width="221.7734" x="685.5933" y="363.1719"/><text fill="#000000" font-family="sans-serif" font-size="12" lengthAdjust="spacing" textLength="201.7734" x="695.5933" y="384.3105">User enters description (optional)</text><rect fill="#555555" height="6" rx="2.5" ry="2.5" style="stroke:#555555;stroke-width:1;" width="908.3667" x="11" y="417.1406"/><rect fill="#F1F1F1" height="33.9688" rx="12.5" ry="12.5" style="stroke:#181818;stroke-width:0.5;" width="130.625" x="397.939" y="487.1406"/><text fill="#000000" font-family="sans-serif" font-size="12" lengthAdjust="spacing" textLength="110.625" x="407.939" y="508.2793">User submits form</text><polygon fill="#F1F1F1" points="387.1458,541.1094,539.3572,541.1094,551.3572,553.1094,539.3572,565.1094,387.1458,565.1094,375.1458,553.1094,387.1458,541.1094" style="stroke:#181818;stroke-width:0.5;"/><text fill="#000000" font-family="sans-serif" font-size="11" lengthAdjust="spacing" textLength="152.2114" x="387.1458" y="556.9175">Form validation successful?</text><text fill="#000000" font-family="sans-serif" font-size="11" lengthAdjust="spacing" textLength="19.0083" x="356.1375" y="550.5151">yes</text><text fill="#000000" font-family="sans-serif" font-size="11" lengthAdjust="spacing" textLength="13.7017" x="551.3572" y="550.5151">no</text><rect fill="#F1F1F1" height="33.9688" rx="12.5" ry="12.5" style="stroke:#181818;stroke-width:0.5;" width="231.8691" x="208.8125" y="575.1094"/><text fill="#000000" font-family="sans-serif" font-size="12" lengthAdjust="spacing" textLength="211.8691" x="218.8125" y="596.248">System creates new expense entry</text><rect fill="#F1F1F1" height="33.9688" rx="12.5" ry="12.5" style="stroke:#181818;stroke-width:0.5;" width="294.1074" x="177.6934" y="633.0781"/><text fill="#000000" font-family="sans-serif" font-size="12" lengthAdjust="spacing" textLength="274.1074" x="187.6934" y="654.2168">System updates account balance (decreases)</text><rect fill="#F1F1F1" height="33.9688" rx="12.5" ry="12.5" style="stroke:#181818;stroke-width:0.5;" width="255.0488" x="197.2227" y="687.0469"/><text fill="#000000" font-family="sans-serif" font-size="12" lengthAdjust="spacing" textLength="235.0488" x="207.2227" y="708.1855">System displays confirmation message</text><rect fill="#F1F1F1" height="33.9688" rx="12.5" ry="12.5" style="stroke:#181818;stroke-width:0.5;" width="219.9102" x="491.8008" y="575.1094"/><text fill="#000000" font-family="sans-serif" font-size="12" lengthAdjust="spacing" textLength="199.9102" x="501.8008" y="596.248">System displays validation errors</text><rect fill="#F1F1F1" height="33.9688" rx="12.5" ry="12.5" style="stroke:#181818;stroke-width:0.5;" width="134.5918" x="534.46" y="633.0781"/><text fill="#000000" font-family="sans-serif" font-size="12" lengthAdjust="spacing" textLength="114.5918" x="544.46" y="654.2168">User corrects input</text><polygon fill="#F1F1F1" points="463.2515,443.1406,475.2515,455.1406,463.2515,467.1406,451.2515,455.1406,463.2515,443.1406" style="stroke:#181818;stroke-width:0.5;"/><polygon fill="#F1F1F1" points="463.2515,741.0156,463.2515,741.0156,475.2515,753.0156,463.2515,765.0156,463.2515,765.0156,451.2515,753.0156,463.2515,741.0156" style="stroke:#181818;stroke-width:0.5;"/><polygon fill="#F1F1F1" points="463.2515,785.0156,475.2515,797.0156,463.2515,809.0156,451.2515,797.0156,463.2515,785.0156" style="stroke:#181818;stroke-width:0.5;"/><rect fill="#F1F1F1" height="33.9688" rx="12.5" ry="12.5" style="stroke:#181818;stroke-width:0.5;" width="172.2148" x="931.8979" y="175.2656"/><text fill="#000000" font-family="sans-serif" font-size="12" lengthAdjust="spacing" textLength="152.2148" x="941.8979" y="196.4043">System shows login error</text><rect fill="#F1F1F1" height="33.9688" rx="12.5" ry="12.5" style="stroke:#181818;stroke-width:0.5;" width="177.2773" x="929.3667" y="229.2344"/><text fill="#000000" font-family="sans-serif" font-size="12" lengthAdjust="spacing" textLength="157.2773" x="939.3667" y="250.373">User returns to login page</text><polygon fill="#F1F1F1" points="746.6284,815.0156,758.6284,827.0156,746.6284,839.0156,734.6284,827.0156,746.6284,815.0156" style="stroke:#181818;stroke-width:0.5;"/><ellipse cx="746.6284" cy="870.0156" fill="none" rx="11" ry="11" style="stroke:#222222;stroke-width:1;"/><ellipse cx="746.6284" cy="870.0156" fill="#222222" rx="6" ry="6" style="stroke:#222222;stroke-width:1;"/><line style="stroke:#181818;stroke-width:1;" x1="746.6284" x2="746.6284" y1="67.2969" y2="87.2969"/><polygon fill="#181818" points="742.6284,77.2969,746.6284,87.2969,750.6284,77.2969,746.6284,81.2969" style="stroke:#181818;stroke-width:1;"/><line style="stroke:#181818;stroke-width:1;" x1="463.2515" x2="463.2515" y1="209.2344" y2="229.2344"/><polygon fill="#181818" points="459.2515,219.2344,463.2515,229.2344,467.2515,219.2344,463.2515,223.2344" style="stroke:#181818;stroke-width:1;"/><line style="stroke:#181818;stroke-width:1;" x1="463.2515" x2="463.2515" y1="263.2031" y2="283.2031"/><polygon fill="#181818" points="459.2515,273.2031,463.2515,283.2031,467.2515,273.2031,463.2515,277.2031" style="stroke:#181818;stroke-width:1;"/><line style="stroke:#181818;stroke-width:1;" x1="95.3467" x2="95.3467" y1="343.1719" y2="363.1719"/><polygon fill="#181818" points="91.3467,353.1719,95.3467,363.1719,99.3467,353.1719,95.3467,357.1719" style="stroke:#181818;stroke-width:1;"/><line style="stroke:#181818;stroke-width:1;" x1="266.7896" x2="266.7896" y1="343.1719" y2="363.1719"/><polygon fill="#181818" points="262.7896,353.1719,266.7896,363.1719,270.7896,353.1719,266.7896,357.1719" style="stroke:#181818;stroke-width:1;"/><line style="stroke:#181818;stroke-width:1;" x1="439.521" x2="439.521" y1="343.1719" y2="363.1719"/><polygon fill="#181818" points="435.521,353.1719,439.521,363.1719,443.521,353.1719,439.521,357.1719" style="stroke:#181818;stroke-width:1;"/><line style="stroke:#181818;stroke-width:1;" x1="597.4429" x2="597.4429" y1="343.1719" y2="363.1719"/><polygon fill="#181818" points="593.4429,353.1719,597.4429,363.1719,601.4429,353.1719,597.4429,357.1719" style="stroke:#181818;stroke-width:1;"/><line style="stroke:#181818;stroke-width:1;" x1="796.48" x2="796.48" y1="343.1719" y2="363.1719"/><polygon fill="#181818" points="792.48,353.1719,796.48,363.1719,800.48,353.1719,796.48,357.1719" style="stroke:#181818;stroke-width:1;"/><line style="stroke:#181818;stroke-width:1;" x1="95.3467" x2="95.3467" y1="397.1406" y2="417.1406"/><polygon fill="#181818" points="91.3467,407.1406,95.3467,417.1406,99.3467,407.1406,95.3467,411.1406" style="stroke:#181818;stroke-width:1;"/><line style="stroke:#181818;stroke-width:1;" x1="266.7896" x2="266.7896" y1="397.1406" y2="417.1406"/><polygon fill="#181818" points="262.7896,407.1406,266.7896,417.1406,270.7896,407.1406,266.7896,411.1406" style="stroke:#181818;stroke-width:1;"/><line style="stroke:#181818;stroke-width:1;" x1="439.521" x2="439.521" y1="397.1406" y2="417.1406"/><polygon fill="#181818" points="435.521,407.1406,439.521,417.1406,443.521,407.1406,439.521,411.1406" style="stroke:#181818;stroke-width:1;"/><line style="stroke:#181818;stroke-width:1;" x1="597.4429" x2="597.4429" y1="397.1406" y2="417.1406"/><polygon fill="#181818" points="593.4429,407.1406,597.4429,417.1406,601.4429,407.1406,597.4429,411.1406" style="stroke:#181818;stroke-width:1;"/><line style="stroke:#181818;stroke-width:1;" x1="796.48" x2="796.48" y1="397.1406" y2="417.1406"/><polygon fill="#181818" points="792.48,407.1406,796.48,417.1406,800.48,407.1406,796.48,411.1406" style="stroke:#181818;stroke-width:1;"/><line style="stroke:#181818;stroke-width:1;" x1="463.2515" x2="463.2515" y1="317.1719" y2="337.1719"/><polygon fill="#181818" points="459.2515,327.1719,463.2515,337.1719,467.2515,327.1719,463.2515,331.1719" style="stroke:#181818;stroke-width:1;"/><line style="stroke:#181818;stroke-width:1;" x1="324.7471" x2="324.7471" y1="609.0781" y2="633.0781"/><polygon fill="#181818" points="320.7471,623.0781,324.7471,633.0781,328.7471,623.0781,324.7471,627.0781" style="stroke:#181818;stroke-width:1;"/><line style="stroke:#181818;stroke-width:1;" x1="324.7471" x2="324.7471" y1="667.0469" y2="687.0469"/><polygon fill="#181818" points="320.7471,677.0469,324.7471,687.0469,328.7471,677.0469,324.7471,681.0469" style="stroke:#181818;stroke-width:1;"/><line style="stroke:#181818;stroke-width:1;" x1="324.7471" x2="324.7471" y1="721.0156" y2="797.0156"/><line style="stroke:#181818;stroke-width:1;" x1="324.7471" x2="451.2515" y1="797.0156" y2="797.0156"/><polygon fill="#181818" points="441.2515,793.0156,451.2515,797.0156,441.2515,801.0156,445.2515,797.0156" style="stroke:#181818;stroke-width:1;"/><line style="stroke:#181818;stroke-width:1;" x1="601.7559" x2="601.7559" y1="609.0781" y2="633.0781"/><polygon fill="#181818" points="597.7559,623.0781,601.7559,633.0781,605.7559,623.0781,601.7559,627.0781" style="stroke:#181818;stroke-width:1;"/><line style="stroke:#181818;stroke-width:1;" x1="375.1458" x2="324.7471" y1="553.1094" y2="553.1094"/><line style="stroke:#181818;stroke-width:1;" x1="324.7471" x2="324.7471" y1="553.1094" y2="575.1094"/><polygon fill="#181818" points="320.7471,565.1094,324.7471,575.1094,328.7471,565.1094,324.7471,569.1094" style="stroke:#181818;stroke-width:1;"/><line style="stroke:#181818;stroke-width:1;" x1="551.3572" x2="601.7559" y1="553.1094" y2="553.1094"/><line style="stroke:#181818;stroke-width:1;" x1="601.7559" x2="601.7559" y1="553.1094" y2="575.1094"/><polygon fill="#181818" points="597.7559,565.1094,601.7559,575.1094,605.7559,565.1094,601.7559,569.1094" style="stroke:#181818;stroke-width:1;"/><line style="stroke:#181818;stroke-width:1;" x1="601.7559" x2="601.7559" y1="667.0469" y2="726.0156"/><line style="stroke:#181818;stroke-width:1;" x1="601.7559" x2="463.2515" y1="726.0156" y2="726.0156"/><line style="stroke:#181818;stroke-width:1;" x1="463.2515" x2="463.2515" y1="726.0156" y2="741.0156"/><polygon fill="#181818" points="459.2515,731.0156,463.2515,741.0156,467.2515,731.0156,463.2515,735.0156" style="stroke:#181818;stroke-width:1;"/><line style="stroke:#181818;stroke-width:1;" x1="463.2515" x2="463.2515" y1="521.1094" y2="541.1094"/><polygon fill="#181818" points="459.2515,531.1094,463.2515,541.1094,467.2515,531.1094,463.2515,535.1094" style="stroke:#181818;stroke-width:1;"/><line style="stroke:#181818;stroke-width:1;" x1="463.2515" x2="463.2515" y1="467.1406" y2="487.1406"/><polygon fill="#181818" points="459.2515,477.1406,463.2515,487.1406,467.2515,477.1406,463.2515,481.1406" style="stroke:#181818;stroke-width:1;"/><line style="stroke:#181818;stroke-width:1;" x1="475.2515" x2="733.7109" y1="753.0156" y2="753.0156"/><polygon fill="#181818" points="729.7109,629.0781,733.7109,619.0781,737.7109,629.0781,733.7109,625.0781" style="stroke:#181818;stroke-width:1;"/><line style="stroke:#181818;stroke-width:1;" x1="733.7109" x2="733.7109" y1="455.1406" y2="753.0156"/><line style="stroke:#181818;stroke-width:1;" x1="733.7109" x2="475.2515" y1="455.1406" y2="455.1406"/><polygon fill="#181818" points="485.2515,451.1406,475.2515,455.1406,485.2515,459.1406,481.2515,455.1406" style="stroke:#181818;stroke-width:1;"/><line style="stroke:#181818;stroke-width:1;" x1="463.2515" x2="463.2515" y1="765.0156" y2="785.0156"/><polygon fill="#181818" points="459.2515,775.0156,463.2515,785.0156,467.2515,775.0156,463.2515,779.0156" style="stroke:#181818;stroke-width:1;"/><line style="stroke:#181818;stroke-width:1;" x1="463.2515" x2="463.2515" y1="423.1406" y2="443.1406"/><polygon fill="#181818" points="459.2515,433.1406,463.2515,443.1406,467.2515,433.1406,463.2515,437.1406" style="stroke:#181818;stroke-width:1;"/><line style="stroke:#181818;stroke-width:1;" x1="1018.0054" x2="1018.0054" y1="209.2344" y2="229.2344"/><polygon fill="#181818" points="1014.0054,219.2344,1018.0054,229.2344,1022.0054,219.2344,1018.0054,223.2344" style="stroke:#181818;stroke-width:1;"/><line style="stroke:#181818;stroke-width:1;" x1="686.5625" x2="463.2515" y1="153.2656" y2="153.2656"/><line style="stroke:#181818;stroke-width:1;" x1="463.2515" x2="463.2515" y1="153.2656" y2="175.2656"/><polygon fill="#181818" points="459.2515,165.2656,463.2515,175.2656,467.2515,165.2656,463.2515,169.2656" style="stroke:#181818;stroke-width:1;"/><line style="stroke:#181818;stroke-width:1;" x1="806.6943" x2="1018.0054" y1="153.2656" y2="153.2656"/><line style="stroke:#181818;stroke-width:1;" x1="1018.0054" x2="1018.0054" y1="153.2656" y2="175.2656"/><polygon fill="#181818" points="1014.0054,165.2656,1018.0054,175.2656,1022.0054,165.2656,1018.0054,169.2656" style="stroke:#181818;stroke-width:1;"/><line style="stroke:#181818;stroke-width:1;" x1="463.2515" x2="463.2515" y1="809.0156" y2="827.0156"/><line style="stroke:#181818;stroke-width:1;" x1="463.2515" x2="734.6284" y1="827.0156" y2="827.0156"/><polygon fill="#181818" points="724.6284,823.0156,734.6284,827.0156,724.6284,831.0156,728.6284,827.0156" style="stroke:#181818;stroke-width:1;"/><line style="stroke:#181818;stroke-width:1;" x1="1018.0054" x2="1018.0054" y1="263.2031" y2="827.0156"/><line style="stroke:#181818;stroke-width:1;" x1="1018.0054" x2="758.6284" y1="827.0156" y2="827.0156"/><polygon fill="#181818" points="768.6284,823.0156,758.6284,827.0156,768.6284,831.0156,764.6284,827.0156" style="stroke:#181818;stroke-width:1;"/><line style="stroke:#181818;stroke-width:1;" x1="746.6284" x2="746.6284" y1="121.2656" y2="141.2656"/><polygon fill="#181818" points="742.6284,131.2656,746.6284,141.2656,750.6284,131.2656,746.6284,135.2656" style="stroke:#181818;stroke-width:1;"/><line style="stroke:#181818;stroke-width:1;" x1="746.6284" x2="746.6284" y1="839.0156" y2="859.0156"/><polygon fill="#181818" points="742.6284,849.0156,746.6284,859.0156,750.6284,849.0156,746.6284,853.0156" style="stroke:#181818;stroke-width:1;"/><!--SRC=[XLFBRjmm3BpxAuYSTW_vWVKXID7qr4E091_0bMWl4LaoI3fR_ttfrsAxwBQ00HdYS6Oqb8mj4RoIQCcOuDiGMp9u5moV9F08py7uYss4xuojO7U0vnWvju0PNdxrb9MgIWt5gkhmeTwJIgl0sGhOYK17DUhggk86TZzBonbq285Kco4zxITCXjr8kgy03cyp6Y9hdt1KYAYdOq69jLSdmAoWb2YOmeDRsKmyR8XR2bhgGDbaXAP8joBzzzENMr8CeGpPwXK1s2Bdl-026hL5nhj05_HK0Rj_qgsew6p_nP06uTwuU69bNZ7jfoxASJkEVq8zeLrR7euTk-Njy3CAO9h83z-2Bqpi1YRU-xEPwTPmWxW0AMGw_vblVGCS-ZW3rr3XY0bp8DX5cZZKgMzRBeCB9JSitUAhSrFOqWO-UlCoF4gklSjbVu_cwd0aKaGlWdCseOZCy-JS3xRKF4vkBa72-SJ9B_crqgQYftBMwSRpobvVBgcG3P8L_1qizNxslt3xYodzRm00]--></g></svg>