<svg xmlns="http://www.w3.org/2000/svg" xmlns:xlink="http://www.w3.org/1999/xlink" contentStyleType="text/css" data-diagram-type="CLASS" height="658px" preserveAspectRatio="none" style="width:550px;height:658px;background:#FFFFFF;" version="1.1" viewBox="0 0 550 658" width="550px" zoomAndPan="magnify"><title>Personal Budget Tracker - Entity Relationship Diagram</title><defs/><g><g class="title" data-source-line="1"><text fill="#000000" font-family="sans-serif" font-size="14" font-weight="bold" lengthAdjust="spacing" textLength="433.043" x="51.8659" y="22.9951">Personal Budget Tracker - Entity Relationship Diagram</text></g><!--class users--><g class="entity" data-entity="users" data-source-line="4" data-uid="ent0002" id="entity_users"><rect fill="#F1F1F1" height="145.7813" rx="2.5" ry="2.5" style="stroke:#181818;stroke-width:0.5;" width="271.5811" x="232.66" y="44.2969"/><ellipse cx="345.2855" cy="60.2969" fill="#ADD1B2" rx="11" ry="11" style="stroke:#181818;stroke-width:1;"/><path d="M349.3949,66.2969 L341.6761,66.2969 L341.6761,53.9063 L349.3949,53.9063 L349.3949,56.0625 L344.1292,56.0625 L344.1292,58.7344 L348.8949,58.7344 L348.8949,60.8906 L344.1292,60.8906 L344.1292,64.1406 L349.3949,64.1406 L349.3949,66.2969 Z " fill="#000000"/><text fill="#000000" font-family="sans-serif" font-size="14" lengthAdjust="spacing" textLength="37.8301" x="365.7855" y="65.1436">users</text><line style="stroke:#181818;stroke-width:0.5;" x1="233.66" x2="503.2411" y1="76.2969" y2="76.2969"/><ellipse cx="243.66" cy="89.9453" fill="#000000" rx="3" ry="3" style="stroke:#000000;stroke-width:1;"/><text fill="#000000" font-family="sans-serif" font-size="14" lengthAdjust="spacing" textLength="127.0186" x="252.66" y="93.292">id : INTEGER «PK»</text><line style="stroke:#181818;stroke-width:1;" x1="233.66" x2="503.2411" y1="100.5938" y2="100.5938"/><text fill="#000000" font-family="sans-serif" font-size="14" lengthAdjust="spacing" textLength="193.8125" x="238.66" y="117.5889">first_name : VARCHAR(255)</text><text fill="#000000" font-family="sans-serif" font-size="14" lengthAdjust="spacing" textLength="191.707" x="238.66" y="133.8857">last_name : VARCHAR(255)</text><text fill="#000000" font-family="sans-serif" font-size="14" lengthAdjust="spacing" textLength="227.9512" x="238.66" y="150.1826">email : VARCHAR(255) «unique»</text><text fill="#000000" font-family="sans-serif" font-size="14" lengthAdjust="spacing" textLength="259.5811" x="238.66" y="166.4795">username : VARCHAR(255) «unique»</text><text fill="#000000" font-family="sans-serif" font-size="14" lengthAdjust="spacing" textLength="186.4639" x="238.66" y="182.7764">password : VARCHAR(255)</text></g><!--class accounts--><g class="entity" data-entity="accounts" data-source-line="14" data-uid="ent0003" id="entity_accounts"><rect fill="#F1F1F1" height="129.4844" rx="2.5" ry="2.5" style="stroke:#181818;stroke-width:0.5;" width="230.8936" x="7" y="267.0769"/><ellipse cx="86.6626" cy="283.0769" fill="#ADD1B2" rx="11" ry="11" style="stroke:#181818;stroke-width:1;"/><path d="M90.772,289.0769 L83.0532,289.0769 L83.0532,276.6863 L90.772,276.6863 L90.772,278.8425 L85.5063,278.8425 L85.5063,281.5144 L90.272,281.5144 L90.272,283.6706 L85.5063,283.6706 L85.5063,286.9206 L90.772,286.9206 L90.772,289.0769 Z " fill="#000000"/><text fill="#000000" font-family="sans-serif" font-size="14" lengthAdjust="spacing" textLength="63.0684" x="107.1626" y="287.9236">accounts</text><line style="stroke:#181818;stroke-width:0.5;" x1="8" x2="236.8936" y1="299.0769" y2="299.0769"/><ellipse cx="18" cy="312.7253" fill="#000000" rx="3" ry="3" style="stroke:#000000;stroke-width:1;"/><text fill="#000000" font-family="sans-serif" font-size="14" lengthAdjust="spacing" textLength="127.0186" x="27" y="316.072">id : INTEGER «PK»</text><line style="stroke:#181818;stroke-width:1;" x1="8" x2="236.8936" y1="323.3738" y2="323.3738"/><text fill="#000000" font-family="sans-serif" font-size="14" lengthAdjust="spacing" textLength="159.4551" x="27" y="340.3689">name : VARCHAR(255)</text><text fill="#000000" font-family="sans-serif" font-size="14" lengthAdjust="spacing" textLength="204.8936" x="27" y="356.6657">account_type : VARCHAR(50)</text><text fill="#000000" font-family="sans-serif" font-size="14" lengthAdjust="spacing" textLength="173.8174" x="27" y="372.9626">balance : DECIMAL(19,4)</text><ellipse cx="18" cy="385.9128" fill="#000000" rx="3" ry="3" style="stroke:#000000;stroke-width:1;"/><text fill="#000000" font-family="sans-serif" font-size="14" lengthAdjust="spacing" textLength="164.165" x="27" y="389.2595">user_id : INTEGER «FK»</text></g><!--class categories--><g class="entity" data-entity="categories" data-source-line="23" data-uid="ent0004" id="entity_categories"><rect fill="#F1F1F1" height="96.8906" rx="2.5" ry="2.5" style="stroke:#181818;stroke-width:0.5;" width="190.165" x="273.36" y="283.3769"/><ellipse cx="327.5006" cy="299.3769" fill="#ADD1B2" rx="11" ry="11" style="stroke:#181818;stroke-width:1;"/><path d="M331.61,305.3769 L323.8913,305.3769 L323.8913,292.9863 L331.61,292.9863 L331.61,295.1425 L326.3444,295.1425 L326.3444,297.8144 L331.11,297.8144 L331.11,299.9706 L326.3444,299.9706 L326.3444,303.2206 L331.61,303.2206 L331.61,305.3769 Z " fill="#000000"/><text fill="#000000" font-family="sans-serif" font-size="14" lengthAdjust="spacing" textLength="73.3838" x="348.0006" y="304.2236">categories</text><line style="stroke:#181818;stroke-width:0.5;" x1="274.36" x2="462.525" y1="315.3769" y2="315.3769"/><ellipse cx="284.36" cy="329.0253" fill="#000000" rx="3" ry="3" style="stroke:#000000;stroke-width:1;"/><text fill="#000000" font-family="sans-serif" font-size="14" lengthAdjust="spacing" textLength="127.0186" x="293.36" y="332.372">id : INTEGER «PK»</text><line style="stroke:#181818;stroke-width:1;" x1="274.36" x2="462.525" y1="339.6738" y2="339.6738"/><text fill="#000000" font-family="sans-serif" font-size="14" lengthAdjust="spacing" textLength="159.4551" x="293.36" y="356.6689">name : VARCHAR(255)</text><ellipse cx="284.36" cy="369.6191" fill="#000000" rx="3" ry="3" style="stroke:#000000;stroke-width:1;"/><text fill="#000000" font-family="sans-serif" font-size="14" lengthAdjust="spacing" textLength="164.165" x="293.36" y="372.9657">user_id : INTEGER «FK»</text></g><!--class entries--><g class="entity" data-entity="entries" data-source-line="30" data-uid="ent0005" id="entity_entries"><rect fill="#F1F1F1" height="178.375" rx="2.5" ry="2.5" style="stroke:#181818;stroke-width:0.5;" width="223.5928" x="256.65" y="473.5569"/><ellipse cx="339.9322" cy="489.5569" fill="#ADD1B2" rx="11" ry="11" style="stroke:#181818;stroke-width:1;"/><path d="M344.0416,495.5569 L336.3229,495.5569 L336.3229,483.1663 L344.0416,483.1663 L344.0416,485.3225 L338.776,485.3225 L338.776,487.9944 L343.5416,487.9944 L343.5416,490.1506 L338.776,490.1506 L338.776,493.4006 L344.0416,493.4006 L344.0416,495.5569 Z " fill="#000000"/><text fill="#000000" font-family="sans-serif" font-size="14" lengthAdjust="spacing" textLength="48.5283" x="360.4322" y="494.4036">entries</text><line style="stroke:#181818;stroke-width:0.5;" x1="257.65" x2="479.2428" y1="505.5569" y2="505.5569"/><ellipse cx="267.65" cy="519.2053" fill="#000000" rx="3" ry="3" style="stroke:#000000;stroke-width:1;"/><text fill="#000000" font-family="sans-serif" font-size="14" lengthAdjust="spacing" textLength="127.0186" x="276.65" y="522.552">id : INTEGER «PK»</text><line style="stroke:#181818;stroke-width:1;" x1="257.65" x2="479.2428" y1="529.8538" y2="529.8538"/><ellipse cx="267.65" cy="543.5022" fill="#000000" rx="3" ry="3" style="stroke:#000000;stroke-width:1;"/><text fill="#000000" font-family="sans-serif" font-size="14" lengthAdjust="spacing" textLength="164.165" x="276.65" y="546.8489">user_id : INTEGER «FK»</text><ellipse cx="267.65" cy="559.7991" fill="#000000" rx="3" ry="3" style="stroke:#000000;stroke-width:1;"/><text fill="#000000" font-family="sans-serif" font-size="14" lengthAdjust="spacing" textLength="189.4033" x="276.65" y="563.1457">account_id : INTEGER «FK»</text><ellipse cx="267.65" cy="576.0959" fill="#000000" rx="3" ry="3" style="stroke:#000000;stroke-width:1;"/><text fill="#000000" font-family="sans-serif" font-size="14" lengthAdjust="spacing" textLength="195.501" x="276.65" y="579.4426">category_id : INTEGER «FK»</text><text fill="#000000" font-family="sans-serif" font-size="14" lengthAdjust="spacing" textLength="172.7168" x="276.65" y="595.7395">amount : DECIMAL(19,4)</text><text fill="#000000" font-family="sans-serif" font-size="14" lengthAdjust="spacing" textLength="82.9404" x="276.65" y="612.0364">date : DATE</text><text fill="#000000" font-family="sans-serif" font-size="14" lengthAdjust="spacing" textLength="197.5928" x="276.65" y="628.3332">description : VARCHAR(255)</text><text fill="#000000" font-family="sans-serif" font-size="14" lengthAdjust="spacing" textLength="159.3184" x="276.65" y="644.6301">is_expense : BOOLEAN</text></g><!--link users to accounts--><g class="link" data-entity-1="users" data-entity-2="accounts" data-source-line="43" data-uid="lnk6" id="link_users_accounts"><path codeLine="43" d="M278.7688,195.6997 C250.0788,220.5097 237.8579,231.066 209.9879,255.156" fill="none" id="users-accounts" style="stroke:#181818;stroke-width:1;"/><line style="stroke:#181818;stroke-width:1;" x1="279.178" x2="284.4108" y1="190.0577" y2="196.1089"/><line style="stroke:#181818;stroke-width:1;" x1="276.9088" x2="282.1416" y1="192.02" y2="198.0712"/><line style="stroke:#181818;stroke-width:1;" x1="278.7688" x2="284.82" y1="195.6997" y2="190.4669"/><line style="stroke:#181818;stroke-width:1;" x1="202.4224" x2="200.2936" y1="261.6954" y2="271.4662"/><line style="stroke:#181818;stroke-width:1;" x1="202.4224" x2="192.4464" y1="261.6954" y2="262.3876"/><line style="stroke:#181818;stroke-width:1;" x1="202.4224" x2="196.37" y1="261.6954" y2="266.9269"/><ellipse cx="206.9617" cy="257.7717" fill="none" rx="4" ry="4" style="stroke:#181818;stroke-width:1;"/><text fill="#000000" font-family="sans-serif" font-size="13" lengthAdjust="spacing" textLength="48.3247" x="246.45" y="233.1438">creates</text></g><!--link users to categories--><g class="link" data-entity-1="users" data-entity-2="categories" data-source-line="44" data-uid="lnk7" id="link_users_categories"><path codeLine="44" d="M368.45,198.4669 C368.45,229.0469 368.45,237.8269 368.45,265.1169" fill="none" id="users-categories" style="stroke:#181818;stroke-width:1;"/><line style="stroke:#181818;stroke-width:1;" x1="364.45" x2="372.45" y1="194.4669" y2="194.4669"/><line style="stroke:#181818;stroke-width:1;" x1="364.45" x2="372.45" y1="197.4669" y2="197.4669"/><line style="stroke:#181818;stroke-width:1;" x1="368.45" x2="368.45" y1="198.4669" y2="190.4669"/><line style="stroke:#181818;stroke-width:1;" x1="368.45" x2="374.45" y1="275.1169" y2="283.1169"/><line style="stroke:#181818;stroke-width:1;" x1="368.45" x2="362.45" y1="275.1169" y2="283.1169"/><line style="stroke:#181818;stroke-width:1;" x1="368.45" x2="368.45" y1="275.1169" y2="283.1169"/><ellipse cx="368.45" cy="269.1169" fill="none" rx="4" ry="4" style="stroke:#181818;stroke-width:1;"/><text fill="#000000" font-family="sans-serif" font-size="13" lengthAdjust="spacing" textLength="48.3247" x="369.45" y="233.1438">creates</text></g><!--link users to entries--><g class="link" data-entity-1="users" data-entity-2="entries" data-source-line="45" data-uid="lnk8" id="link_users_entries"><path codeLine="45" d="M442.8123,196.5989 C460.4923,219.3989 472.18,239.5469 481.45,267.0769 C499.8,321.6169 497.15,341.1969 481.45,396.5569 C473.81,423.4669 469.7917,434.808 454.1717,458.248" fill="none" id="users-entries" style="stroke:#181818;stroke-width:1;"/><line style="stroke:#181818;stroke-width:1;" x1="437.2002" x2="443.5221" y1="195.889" y2="190.9867"/><line style="stroke:#181818;stroke-width:1;" x1="439.0385" x2="445.3605" y1="198.2598" y2="193.3575"/><line style="stroke:#181818;stroke-width:1;" x1="442.8123" x2="437.91" y1="196.5989" y2="190.2769"/><line style="stroke:#181818;stroke-width:1;" x1="448.6263" x2="449.183" y1="466.5696" y2="476.5541"/><line style="stroke:#181818;stroke-width:1;" x1="448.6263" x2="439.197" y1="466.5696" y2="469.8997"/><line style="stroke:#181818;stroke-width:1;" x1="448.6263" x2="444.19" y1="466.5696" y2="473.2269"/><ellipse cx="451.9535" cy="461.5766" fill="none" rx="4" ry="4" style="stroke:#181818;stroke-width:1;"/><text fill="#000000" font-family="sans-serif" font-size="13" lengthAdjust="spacing" textLength="48.3247" x="494.45" y="336.3838">creates</text></g><!--link accounts to entries--><g class="link" data-entity-1="accounts" data-entity-2="entries" data-source-line="46" data-uid="lnk9" id="link_accounts_entries"><path codeLine="46" d="M197.1569,402.3463 C222.5969,426.0163 232.8726,435.5849 260.2226,461.0349" fill="none" id="accounts-entries" style="stroke:#181818;stroke-width:1;"/><line style="stroke:#181818;stroke-width:1;" x1="191.5037" x2="196.9532" y1="402.5501" y2="396.6931"/><line style="stroke:#181818;stroke-width:1;" x1="193.7001" x2="199.1495" y1="404.5936" y2="398.7367"/><line style="stroke:#181818;stroke-width:1;" x1="197.1569" x2="191.3" y1="402.3463" y2="396.8969"/><line style="stroke:#181818;stroke-width:1;" x1="267.5434" x2="277.4873" y1="467.8471" y2="468.9044"/><line style="stroke:#181818;stroke-width:1;" x1="267.5434" x2="269.3127" y1="467.8471" y2="477.6893"/><line style="stroke:#181818;stroke-width:1;" x1="267.5434" x2="273.4" y1="467.8471" y2="473.2969"/><ellipse cx="263.1509" cy="463.7598" fill="none" rx="4" ry="4" style="stroke:#181818;stroke-width:1;"/><text fill="#000000" font-family="sans-serif" font-size="13" lengthAdjust="spacing" textLength="55.0278" x="239.45" y="439.6238">contains</text></g><!--link categories to entries--><g class="link" data-entity-1="categories" data-entity-2="entries" data-source-line="47" data-uid="lnk10" id="link_categories_entries"><path codeLine="47" d="M368.45,388.5369 C368.45,415.3969 368.45,423.7969 368.45,455.3969" fill="none" id="categories-entries" style="stroke:#181818;stroke-width:1;"/><line style="stroke:#181818;stroke-width:1;" x1="364.45" x2="372.45" y1="384.5369" y2="384.5369"/><line style="stroke:#181818;stroke-width:1;" x1="364.45" x2="372.45" y1="387.5369" y2="387.5369"/><line style="stroke:#181818;stroke-width:1;" x1="368.45" x2="368.45" y1="388.5369" y2="380.5369"/><line style="stroke:#181818;stroke-width:1;" x1="368.45" x2="374.45" y1="465.3969" y2="473.3969"/><line style="stroke:#181818;stroke-width:1;" x1="368.45" x2="362.45" y1="465.3969" y2="473.3969"/><line style="stroke:#181818;stroke-width:1;" x1="368.45" x2="368.45" y1="465.3969" y2="473.3969"/><ellipse cx="368.45" cy="459.3969" fill="none" rx="4" ry="4" style="stroke:#181818;stroke-width:1;"/><text fill="#000000" font-family="sans-serif" font-size="13" lengthAdjust="spacing" textLength="74.9658" x="369.45" y="439.6238">categorizes</text></g><!--SRC=[dLFRJi9047tlLqnuGObDrCY3nfXKgPV8nJJeAndBW1lBRjtTHX7yTsTBmOfjDBvqB-VCd3cpKojiGd17sYY92PnduobP66gCdqc33w6qmiuXeWIjKD8yYHGw0gSQPvxNX7l3mGbAUz_hDWtGYYsLpTamKHh6QF4HcSTBGiOhE8tCi6W3q42-WuK7q19ZE86R_Z2y2YCuFRsxFJlZQz_dpqHeOqSIPyIKXo2wk0wYdSDsUvUn16iXcg58jguvSoR5IqPvTYTV4VkTbA8nhqgFjmK-l8qXZ6ELIRloj3xyQgkwwY9yPETf6MtlE_0HkUEnk- -45pUzeBjpSBntv92MypBQKhjqQgKwOxGqLLhGgjAlupzh_PCehnl5Ol-hN7rYnjOTge4BL_CQ76SkkAA3FArvOuDXw4vaOYtIV9P_-1PcH6yfIUC2pWU3RXZqdUKcT6WY984k_JJ6MqtvSkdxQl4r7YVy7ffOr3I-CqhFKijPDx9Cs6Iku2XfKKWcbP9Nq0hmdTDz0W00]--></g></svg>