<svg xmlns="http://www.w3.org/2000/svg" xmlns:xlink="http://www.w3.org/1999/xlink" contentStyleType="text/css" data-diagram-type="SEQUENCE" height="1164px" preserveAspectRatio="none" style="width:1920px;height:1164px;background:#FFFFFF;" version="1.1" viewBox="0 0 1920 1164" width="1920px" zoomAndPan="magnify"><title>Personal Budget Tracker - Sequence Diagram: Adding an Expense Entry</title><defs/><g><text fill="#000000" font-family="sans-serif" font-size="14" font-weight="bold" lengthAdjust="spacing" textLength="567.7656" x="675.2312" y="27.9951">Personal Budget Tracker - Sequence Diagram: Adding an Expense Entry</text><g><title>User</title><rect fill="#000000" fill-opacity="0.00000" height="965.25" width="8" x="19.9551" y="118.5938"/><line style="stroke:#181818;stroke-width:0.5;stroke-dasharray:5.0,5.0;" x1="23" x2="23" y1="118.5938" y2="1083.8438"/></g><g><title>Web UI</title><rect fill="#000000" fill-opacity="0.00000" height="965.25" width="8" x="435.0151" y="118.5938"/><line style="stroke:#181818;stroke-width:0.5;stroke-dasharray:5.0,5.0;" x1="438.9307" x2="438.9307" y1="118.5938" y2="1083.8438"/></g><g><title>EntriesController</title><rect fill="#000000" fill-opacity="0.00000" height="965.25" width="8" x="743.0664" y="118.5938"/><line style="stroke:#181818;stroke-width:0.5;stroke-dasharray:5.0,5.0;" x1="746.0996" x2="746.0996" y1="118.5938" y2="1083.8438"/></g><g><title>EntryService</title><rect fill="#000000" fill-opacity="0.00000" height="965.25" width="8" x="903.4585" y="118.5938"/><line style="stroke:#181818;stroke-width:0.5;stroke-dasharray:5.0,5.0;" x1="906.9634" x2="906.9634" y1="118.5938" y2="1083.8438"/></g><g><title>AccountService</title><rect fill="#000000" fill-opacity="0.00000" height="965.25" width="8" x="1161.4014" y="118.5938"/><line style="stroke:#181818;stroke-width:0.5;stroke-dasharray:5.0,5.0;" x1="1165.1445" x2="1165.1445" y1="118.5938" y2="1083.8438"/></g><g><title>CategoryService</title><rect fill="#000000" fill-opacity="0.00000" height="965.25" width="8" x="1297.5039" y="118.5938"/><line style="stroke:#181818;stroke-width:0.5;stroke-dasharray:5.0,5.0;" x1="1300.6582" x2="1300.6582" y1="118.5938" y2="1083.8438"/></g><g><title>EntryRepository</title><rect fill="#000000" fill-opacity="0.00000" height="965.25" width="8" x="1435.5103" y="118.5938"/><line style="stroke:#181818;stroke-width:0.5;stroke-dasharray:5.0,5.0;" x1="1439.3496" x2="1439.3496" y1="118.5938" y2="1083.8438"/></g><g><title>AccountRepository</title><rect fill="#000000" fill-opacity="0.00000" height="965.25" width="8" x="1581.5933" y="118.5938"/><line style="stroke:#181818;stroke-width:0.5;stroke-dasharray:5.0,5.0;" x1="1584.6709" x2="1584.6709" y1="118.5938" y2="1083.8438"/></g><g><title>Auth System</title><rect fill="#000000" fill-opacity="0.00000" height="965.25" width="8" x="1716.25" y="118.5938"/><line style="stroke:#181818;stroke-width:0.5;stroke-dasharray:5.0,5.0;" x1="1719.5156" x2="1719.5156" y1="118.5938" y2="1083.8438"/></g><g><title>CategoryRepo</title><rect fill="#000000" fill-opacity="0.00000" height="965.25" width="8" x="1853.3564" y="118.5938"/><line style="stroke:#181818;stroke-width:0.5;stroke-dasharray:5.0,5.0;" x1="1856.4849" x2="1856.4849" y1="118.5938" y2="1083.8438"/></g><g class="participant participant-head" data-participant="User"><text fill="#000000" font-family="sans-serif" font-size="14" lengthAdjust="spacing" textLength="31.9102" x="5" y="115.292">User</text><ellipse cx="23.9551" cy="50.7969" fill="#E2E2F0" rx="8" ry="8" style="stroke:#181818;stroke-width:0.5;"/><path d="M23.9551,58.7969 L23.9551,85.7969 M10.9551,66.7969 L36.9551,66.7969 M23.9551,85.7969 L10.9551,100.7969 M23.9551,85.7969 L36.9551,100.7969" fill="none" style="stroke:#181818;stroke-width:0.5;"/></g><g class="participant participant-tail" data-participant="User"><text fill="#000000" font-family="sans-serif" font-size="14" lengthAdjust="spacing" textLength="31.9102" x="5" y="1095.8389">User</text><ellipse cx="23.9551" cy="1107.6406" fill="#E2E2F0" rx="8" ry="8" style="stroke:#181818;stroke-width:0.5;"/><path d="M23.9551,1115.6406 L23.9551,1142.6406 M10.9551,1123.6406 L36.9551,1123.6406 M23.9551,1142.6406 L10.9551,1157.6406 M23.9551,1142.6406 L36.9551,1157.6406" fill="none" style="stroke:#181818;stroke-width:0.5;"/></g><g class="participant participant-head" data-participant="UI"><rect fill="#E2E2F0" height="30.2969" rx="2.5" ry="2.5" style="stroke:#181818;stroke-width:0.5;" width="64.1689" x="406.9307" y="87.2969"/><text fill="#000000" font-family="sans-serif" font-size="14" lengthAdjust="spacing" textLength="50.1689" x="413.9307" y="107.292">Web UI</text></g><g class="participant participant-tail" data-participant="UI"><rect fill="#E2E2F0" height="30.2969" rx="2.5" ry="2.5" style="stroke:#181818;stroke-width:0.5;" width="64.1689" x="406.9307" y="1082.8438"/><text fill="#000000" font-family="sans-serif" font-size="14" lengthAdjust="spacing" textLength="50.1689" x="413.9307" y="1102.8389">Web UI</text></g><g class="participant participant-head" data-participant="Controller"><rect fill="#E2E2F0" height="30.2969" rx="2.5" ry="2.5" style="stroke:#181818;stroke-width:0.5;" width="131.9336" x="681.0996" y="87.2969"/><text fill="#000000" font-family="sans-serif" font-size="14" lengthAdjust="spacing" textLength="117.9336" x="688.0996" y="107.292">EntriesController</text></g><g class="participant participant-tail" data-participant="Controller"><rect fill="#E2E2F0" height="30.2969" rx="2.5" ry="2.5" style="stroke:#181818;stroke-width:0.5;" width="131.9336" x="681.0996" y="1082.8438"/><text fill="#000000" font-family="sans-serif" font-size="14" lengthAdjust="spacing" textLength="117.9336" x="688.0996" y="1102.8389">EntriesController</text></g><g class="participant participant-head" data-participant="Service"><rect fill="#E2E2F0" height="30.2969" rx="2.5" ry="2.5" style="stroke:#181818;stroke-width:0.5;" width="102.9902" x="855.9634" y="87.2969"/><text fill="#000000" font-family="sans-serif" font-size="14" lengthAdjust="spacing" textLength="88.9902" x="862.9634" y="107.292">EntryService</text></g><g class="participant participant-tail" data-participant="Service"><rect fill="#E2E2F0" height="30.2969" rx="2.5" ry="2.5" style="stroke:#181818;stroke-width:0.5;" width="102.9902" x="855.9634" y="1082.8438"/><text fill="#000000" font-family="sans-serif" font-size="14" lengthAdjust="spacing" textLength="88.9902" x="862.9634" y="1102.8389">EntryService</text></g><g class="participant participant-head" data-participant="AccountService"><rect fill="#E2E2F0" height="30.2969" rx="2.5" ry="2.5" style="stroke:#181818;stroke-width:0.5;" width="122.5137" x="1104.1445" y="87.2969"/><text fill="#000000" font-family="sans-serif" font-size="14" lengthAdjust="spacing" textLength="108.5137" x="1111.1445" y="107.292">AccountService</text></g><g class="participant participant-tail" data-participant="AccountService"><rect fill="#E2E2F0" height="30.2969" rx="2.5" ry="2.5" style="stroke:#181818;stroke-width:0.5;" width="122.5137" x="1104.1445" y="1082.8438"/><text fill="#000000" font-family="sans-serif" font-size="14" lengthAdjust="spacing" textLength="108.5137" x="1111.1445" y="1102.8389">AccountService</text></g><g class="participant participant-head" data-participant="CategoryService"><rect fill="#E2E2F0" height="30.2969" rx="2.5" ry="2.5" style="stroke:#181818;stroke-width:0.5;" width="129.6914" x="1236.6582" y="87.2969"/><text fill="#000000" font-family="sans-serif" font-size="14" lengthAdjust="spacing" textLength="115.6914" x="1243.6582" y="107.292">CategoryService</text></g><g class="participant participant-tail" data-participant="CategoryService"><rect fill="#E2E2F0" height="30.2969" rx="2.5" ry="2.5" style="stroke:#181818;stroke-width:0.5;" width="129.6914" x="1236.6582" y="1082.8438"/><text fill="#000000" font-family="sans-serif" font-size="14" lengthAdjust="spacing" textLength="115.6914" x="1243.6582" y="1102.8389">CategoryService</text></g><g class="participant participant-head" data-participant="EntryRepo"><rect fill="#E2E2F0" height="30.2969" rx="2.5" ry="2.5" style="stroke:#181818;stroke-width:0.5;" width="126.3213" x="1376.3496" y="87.2969"/><text fill="#000000" font-family="sans-serif" font-size="14" lengthAdjust="spacing" textLength="112.3213" x="1383.3496" y="107.292">EntryRepository</text></g><g class="participant participant-tail" data-participant="EntryRepo"><rect fill="#E2E2F0" height="30.2969" rx="2.5" ry="2.5" style="stroke:#181818;stroke-width:0.5;" width="126.3213" x="1376.3496" y="1082.8438"/><text fill="#000000" font-family="sans-serif" font-size="14" lengthAdjust="spacing" textLength="112.3213" x="1383.3496" y="1102.8389">EntryRepository</text></g><g class="participant participant-head" data-participant="AccountRepo"><rect fill="#E2E2F0" height="30.2969" rx="2.5" ry="2.5" style="stroke:#181818;stroke-width:0.5;" width="145.8447" x="1512.6709" y="87.2969"/><text fill="#000000" font-family="sans-serif" font-size="14" lengthAdjust="spacing" textLength="131.8447" x="1519.6709" y="107.292">AccountRepository</text></g><g class="participant participant-tail" data-participant="AccountRepo"><rect fill="#E2E2F0" height="30.2969" rx="2.5" ry="2.5" style="stroke:#181818;stroke-width:0.5;" width="145.8447" x="1512.6709" y="1082.8438"/><text fill="#000000" font-family="sans-serif" font-size="14" lengthAdjust="spacing" textLength="131.8447" x="1519.6709" y="1102.8389">AccountRepository</text></g><g class="participant participant-head" data-participant="Auth"><rect fill="#E2E2F0" height="30.2969" rx="2.5" ry="2.5" style="stroke:#181818;stroke-width:0.5;" width="103.4688" x="1668.5156" y="87.2969"/><text fill="#000000" font-family="sans-serif" font-size="14" lengthAdjust="spacing" textLength="89.4688" x="1675.5156" y="107.292">Auth System</text></g><g class="participant participant-tail" data-participant="Auth"><rect fill="#E2E2F0" height="30.2969" rx="2.5" ry="2.5" style="stroke:#181818;stroke-width:0.5;" width="103.4688" x="1668.5156" y="1082.8438"/><text fill="#000000" font-family="sans-serif" font-size="14" lengthAdjust="spacing" textLength="89.4688" x="1675.5156" y="1102.8389">Auth System</text></g><g class="participant participant-head" data-participant="CategoryRepo"><rect fill="#E2E2F0" height="30.2969" rx="2.5" ry="2.5" style="stroke:#181818;stroke-width:0.5;" width="113.7432" x="1800.4849" y="87.2969"/><text fill="#000000" font-family="sans-serif" font-size="14" lengthAdjust="spacing" textLength="99.7432" x="1807.4849" y="107.292">CategoryRepo</text></g><g class="participant participant-tail" data-participant="CategoryRepo"><rect fill="#E2E2F0" height="30.2969" rx="2.5" ry="2.5" style="stroke:#181818;stroke-width:0.5;" width="113.7432" x="1800.4849" y="1082.8438"/><text fill="#000000" font-family="sans-serif" font-size="14" lengthAdjust="spacing" textLength="99.7432" x="1807.4849" y="1102.8389">CategoryRepo</text></g><g class="message" data-participant-1="User" data-participant-2="UI"><polygon fill="#181818" points="427.0151,145.7266,437.0151,149.7266,427.0151,153.7266,431.0151,149.7266" style="stroke:#181818;stroke-width:1;"/><line style="stroke:#181818;stroke-width:1;" x1="23.9551" x2="433.0151" y1="149.7266" y2="149.7266"/><text fill="#000000" font-family="sans-serif" font-size="13" lengthAdjust="spacing" textLength="143.1841" x="30.9551" y="144.6606">Login with credentials</text></g><g class="message" data-participant-1="UI" data-participant-2="Auth"><polygon fill="#181818" points="1708.25,174.8594,1718.25,178.8594,1708.25,182.8594,1712.25,178.8594" style="stroke:#181818;stroke-width:1;"/><line style="stroke:#181818;stroke-width:1;" x1="439.0151" x2="1714.25" y1="178.8594" y2="178.8594"/><text fill="#000000" font-family="sans-serif" font-size="13" lengthAdjust="spacing" textLength="229.2012" x="446.0151" y="173.7935">Authenticate(username, password)</text></g><g class="message" data-participant-1="Auth" data-participant-2="UI"><polygon fill="#181818" points="450.0151,203.9922,440.0151,207.9922,450.0151,211.9922,446.0151,207.9922" style="stroke:#181818;stroke-width:1;"/><line style="stroke:#181818;stroke-width:1;stroke-dasharray:2.0,2.0;" x1="444.0151" x2="1719.25" y1="207.9922" y2="207.9922"/><text fill="#000000" font-family="sans-serif" font-size="13" lengthAdjust="spacing" textLength="113.6611" x="456.0151" y="202.9263">Return JWT token</text></g><g class="message" data-participant-1="UI" data-participant-2="User"><polygon fill="#181818" points="34.9551,233.125,24.9551,237.125,34.9551,241.125,30.9551,237.125" style="stroke:#181818;stroke-width:1;"/><line style="stroke:#181818;stroke-width:1;stroke-dasharray:2.0,2.0;" x1="28.9551" x2="438.0151" y1="237.125" y2="237.125"/><text fill="#000000" font-family="sans-serif" font-size="13" lengthAdjust="spacing" textLength="121.0498" x="40.9551" y="232.0591">Display dashboard</text></g><g class="message" data-participant-1="User" data-participant-2="UI"><polygon fill="#181818" points="427.0151,262.2578,437.0151,266.2578,427.0151,270.2578,431.0151,266.2578" style="stroke:#181818;stroke-width:1;"/><line style="stroke:#181818;stroke-width:1;" x1="23.9551" x2="433.0151" y1="266.2578" y2="266.2578"/><text fill="#000000" font-family="sans-serif" font-size="13" lengthAdjust="spacing" textLength="164.3218" x="30.9551" y="261.1919">Navigate to Add Expense</text></g><g class="message" data-participant-1="UI" data-participant-2="User"><polygon fill="#181818" points="34.9551,291.3906,24.9551,295.3906,34.9551,299.3906,30.9551,295.3906" style="stroke:#181818;stroke-width:1;"/><line style="stroke:#181818;stroke-width:1;stroke-dasharray:2.0,2.0;" x1="28.9551" x2="438.0151" y1="295.3906" y2="295.3906"/><text fill="#000000" font-family="sans-serif" font-size="13" lengthAdjust="spacing" textLength="141.6733" x="40.9551" y="290.3247">Display expense form</text></g><g class="message" data-participant-1="User" data-participant-2="UI"><polygon fill="#181818" points="427.0151,320.5234,437.0151,324.5234,427.0151,328.5234,431.0151,324.5234" style="stroke:#181818;stroke-width:1;"/><line style="stroke:#181818;stroke-width:1;" x1="23.9551" x2="433.0151" y1="324.5234" y2="324.5234"/><text fill="#000000" font-family="sans-serif" font-size="13" lengthAdjust="spacing" textLength="391.0601" x="30.9551" y="319.4575">Fill expense details (account, category, amount, date, desc)</text></g><g class="message" data-participant-1="User" data-participant-2="UI"><polygon fill="#181818" points="427.0151,349.6563,437.0151,353.6563,427.0151,357.6563,431.0151,353.6563" style="stroke:#181818;stroke-width:1;"/><line style="stroke:#181818;stroke-width:1;" x1="23.9551" x2="433.0151" y1="353.6563" y2="353.6563"/><text fill="#000000" font-family="sans-serif" font-size="13" lengthAdjust="spacing" textLength="139.8706" x="30.9551" y="348.5903">Submit expense form</text></g><g class="message" data-participant-1="UI" data-participant-2="Controller"><polygon fill="#181818" points="735.0664,378.7891,745.0664,382.7891,735.0664,386.7891,739.0664,382.7891" style="stroke:#181818;stroke-width:1;"/><line style="stroke:#181818;stroke-width:1;" x1="439.0151" x2="741.0664" y1="382.7891" y2="382.7891"/><text fill="#000000" font-family="sans-serif" font-size="13" lengthAdjust="spacing" textLength="175.9253" x="446.0151" y="377.7231">createEntry(newEntryDTO)</text></g><g class="message" data-participant-1="Controller" data-participant-2="Service"><polygon fill="#181818" points="895.4585,407.9219,905.4585,411.9219,895.4585,415.9219,899.4585,411.9219" style="stroke:#181818;stroke-width:1;"/><line style="stroke:#181818;stroke-width:1;" x1="747.0664" x2="901.4585" y1="411.9219" y2="411.9219"/><text fill="#000000" font-family="sans-serif" font-size="13" lengthAdjust="spacing" textLength="130.2158" x="754.0664" y="406.856">save(newEntryDTO)</text></g><g class="message" data-participant-1="Service" data-participant-2="Auth"><polygon fill="#181818" points="1708.25,437.0547,1718.25,441.0547,1708.25,445.0547,1712.25,441.0547" style="stroke:#181818;stroke-width:1;"/><line style="stroke:#181818;stroke-width:1;" x1="907.4585" x2="1714.25" y1="441.0547" y2="441.0547"/><text fill="#000000" font-family="sans-serif" font-size="13" lengthAdjust="spacing" textLength="39.6855" x="914.4585" y="435.9888">auth()</text></g><g class="message" data-participant-1="Auth" data-participant-2="Auth"><line style="stroke:#181818;stroke-width:1;" x1="1720.25" x2="1762.25" y1="470.1875" y2="470.1875"/><line style="stroke:#181818;stroke-width:1;" x1="1762.25" x2="1762.25" y1="470.1875" y2="483.1875"/><line style="stroke:#181818;stroke-width:1;" x1="1721.25" x2="1762.25" y1="483.1875" y2="483.1875"/><polygon fill="#181818" points="1731.25,479.1875,1721.25,483.1875,1731.25,487.1875,1727.25,483.1875" style="stroke:#181818;stroke-width:1;"/><text fill="#000000" font-family="sans-serif" font-size="13" lengthAdjust="spacing" textLength="123.1064" x="1727.25" y="465.1216">Validate JWT token</text></g><g class="message" data-participant-1="Auth" data-participant-2="Service"><polygon fill="#181818" points="918.4585,508.3203,908.4585,512.3203,918.4585,516.3203,914.4585,512.3203" style="stroke:#181818;stroke-width:1;"/><line style="stroke:#181818;stroke-width:1;stroke-dasharray:2.0,2.0;" x1="912.4585" x2="1719.25" y1="512.3203" y2="512.3203"/><text fill="#000000" font-family="sans-serif" font-size="13" lengthAdjust="spacing" textLength="127.9814" x="924.4585" y="507.2544">Return current user</text></g><g class="message" data-participant-1="Service" data-participant-2="AccountService"><polygon fill="#181818" points="1153.4014,537.4531,1163.4014,541.4531,1153.4014,545.4531,1157.4014,541.4531" style="stroke:#181818;stroke-width:1;"/><line style="stroke:#181818;stroke-width:1;" x1="907.4585" x2="1159.4014" y1="541.4531" y2="541.4531"/><text fill="#000000" font-family="sans-serif" font-size="13" lengthAdjust="spacing" textLength="127.3975" x="914.4585" y="536.3872">findById(accountId)</text></g><g class="message" data-participant-1="AccountService" data-participant-2="AccountRepo"><polygon fill="#181818" points="1573.5933,566.5859,1583.5933,570.5859,1573.5933,574.5859,1577.5933,570.5859" style="stroke:#181818;stroke-width:1;"/><line style="stroke:#181818;stroke-width:1;" x1="1165.4014" x2="1579.5933" y1="570.5859" y2="570.5859"/><text fill="#000000" font-family="sans-serif" font-size="13" lengthAdjust="spacing" textLength="127.3975" x="1172.4014" y="565.52">findById(accountId)</text></g><g class="message" data-participant-1="AccountRepo" data-participant-2="AccountService"><polygon fill="#181818" points="1176.4014,595.7188,1166.4014,599.7188,1176.4014,603.7188,1172.4014,599.7188" style="stroke:#181818;stroke-width:1;"/><line style="stroke:#181818;stroke-width:1;stroke-dasharray:2.0,2.0;" x1="1170.4014" x2="1584.5933" y1="599.7188" y2="599.7188"/><text fill="#000000" font-family="sans-serif" font-size="13" lengthAdjust="spacing" textLength="99.874" x="1182.4014" y="594.6528">Return account</text></g><g class="message" data-participant-1="AccountService" data-participant-2="Service"><polygon fill="#181818" points="918.4585,624.8516,908.4585,628.8516,918.4585,632.8516,914.4585,628.8516" style="stroke:#181818;stroke-width:1;"/><line style="stroke:#181818;stroke-width:1;stroke-dasharray:2.0,2.0;" x1="912.4585" x2="1164.4014" y1="628.8516" y2="628.8516"/><text fill="#000000" font-family="sans-serif" font-size="13" lengthAdjust="spacing" textLength="99.874" x="924.4585" y="623.7856">Return account</text></g><g class="message" data-participant-1="Service" data-participant-2="CategoryService"><polygon fill="#181818" points="1289.5039,653.9844,1299.5039,657.9844,1289.5039,661.9844,1293.5039,657.9844" style="stroke:#181818;stroke-width:1;"/><line style="stroke:#181818;stroke-width:1;" x1="907.4585" x2="1295.5039" y1="657.9844" y2="657.9844"/><text fill="#000000" font-family="sans-serif" font-size="13" lengthAdjust="spacing" textLength="133.0596" x="914.4585" y="652.9185">findById(categoryId)</text></g><g class="message" data-participant-1="CategoryService" data-participant-2="CategoryRepo"><polygon fill="#181818" points="1845.3564,683.1172,1855.3564,687.1172,1845.3564,691.1172,1849.3564,687.1172" style="stroke:#181818;stroke-width:1;"/><line style="stroke:#181818;stroke-width:1;" x1="1301.5039" x2="1851.3564" y1="687.1172" y2="687.1172"/><text fill="#000000" font-family="sans-serif" font-size="13" lengthAdjust="spacing" textLength="133.0596" x="1308.5039" y="682.0513">findById(categoryId)</text></g><g class="message" data-participant-1="CategoryRepo" data-participant-2="CategoryService"><polygon fill="#181818" points="1312.5039,712.25,1302.5039,716.25,1312.5039,720.25,1308.5039,716.25" style="stroke:#181818;stroke-width:1;"/><line style="stroke:#181818;stroke-width:1;stroke-dasharray:2.0,2.0;" x1="1306.5039" x2="1856.3564" y1="716.25" y2="716.25"/><text fill="#000000" font-family="sans-serif" font-size="13" lengthAdjust="spacing" textLength="105.5361" x="1318.5039" y="711.1841">Return category</text></g><g class="message" data-participant-1="CategoryService" data-participant-2="Service"><polygon fill="#181818" points="918.4585,741.3828,908.4585,745.3828,918.4585,749.3828,914.4585,745.3828" style="stroke:#181818;stroke-width:1;"/><line style="stroke:#181818;stroke-width:1;stroke-dasharray:2.0,2.0;" x1="912.4585" x2="1300.5039" y1="745.3828" y2="745.3828"/><text fill="#000000" font-family="sans-serif" font-size="13" lengthAdjust="spacing" textLength="105.5361" x="924.4585" y="740.3169">Return category</text></g><g class="message" data-participant-1="Service" data-participant-2="EntryRepo"><polygon fill="#181818" points="1427.5103,770.5156,1437.5103,774.5156,1427.5103,778.5156,1431.5103,774.5156" style="stroke:#181818;stroke-width:1;"/><line style="stroke:#181818;stroke-width:1;" x1="907.4585" x2="1433.5103" y1="774.5156" y2="774.5156"/><text fill="#000000" font-family="sans-serif" font-size="13" lengthAdjust="spacing" textLength="102.0322" x="914.4585" y="769.4497">save(newEntry)</text></g><g class="message" data-participant-1="EntryRepo" data-participant-2="Service"><polygon fill="#181818" points="918.4585,799.6484,908.4585,803.6484,918.4585,807.6484,914.4585,803.6484" style="stroke:#181818;stroke-width:1;"/><line style="stroke:#181818;stroke-width:1;stroke-dasharray:2.0,2.0;" x1="912.4585" x2="1438.5103" y1="803.6484" y2="803.6484"/><text fill="#000000" font-family="sans-serif" font-size="13" lengthAdjust="spacing" textLength="125.271" x="924.4585" y="798.5825">Return saved entry</text></g><g class="message" data-participant-1="Service" data-participant-2="AccountService"><polygon fill="#181818" points="1153.4014,828.7813,1163.4014,832.7813,1153.4014,836.7813,1157.4014,832.7813" style="stroke:#181818;stroke-width:1;"/><line style="stroke:#181818;stroke-width:1;" x1="907.4585" x2="1159.4014" y1="832.7813" y2="832.7813"/><text fill="#000000" font-family="sans-serif" font-size="13" lengthAdjust="spacing" textLength="233.9429" x="914.4585" y="827.7153">removeBalance(accountId, amount)</text></g><g class="message" data-participant-1="AccountService" data-participant-2="AccountRepo"><polygon fill="#181818" points="1573.5933,857.9141,1583.5933,861.9141,1573.5933,865.9141,1577.5933,861.9141" style="stroke:#181818;stroke-width:1;"/><line style="stroke:#181818;stroke-width:1;" x1="1165.4014" x2="1579.5933" y1="861.9141" y2="861.9141"/><text fill="#000000" font-family="sans-serif" font-size="13" lengthAdjust="spacing" textLength="127.3975" x="1172.4014" y="856.8481">findById(accountId)</text></g><g class="message" data-participant-1="AccountRepo" data-participant-2="AccountService"><polygon fill="#181818" points="1176.4014,887.0469,1166.4014,891.0469,1176.4014,895.0469,1172.4014,891.0469" style="stroke:#181818;stroke-width:1;"/><line style="stroke:#181818;stroke-width:1;stroke-dasharray:2.0,2.0;" x1="1170.4014" x2="1584.5933" y1="891.0469" y2="891.0469"/><text fill="#000000" font-family="sans-serif" font-size="13" lengthAdjust="spacing" textLength="99.874" x="1182.4014" y="885.981">Return account</text></g><g class="message" data-participant-1="AccountService" data-participant-2="AccountRepo"><polygon fill="#181818" points="1573.5933,916.1797,1583.5933,920.1797,1573.5933,924.1797,1577.5933,920.1797" style="stroke:#181818;stroke-width:1;"/><line style="stroke:#181818;stroke-width:1;" x1="1165.4014" x2="1579.5933" y1="920.1797" y2="920.1797"/><text fill="#000000" font-family="sans-serif" font-size="13" lengthAdjust="spacing" textLength="147.3481" x="1172.4014" y="915.1138">save(updatedAccount)</text></g><g class="message" data-participant-1="AccountRepo" data-participant-2="AccountService"><polygon fill="#181818" points="1176.4014,945.3125,1166.4014,949.3125,1176.4014,953.3125,1172.4014,949.3125" style="stroke:#181818;stroke-width:1;"/><line style="stroke:#181818;stroke-width:1;stroke-dasharray:2.0,2.0;" x1="1170.4014" x2="1584.5933" y1="949.3125" y2="949.3125"/><text fill="#000000" font-family="sans-serif" font-size="13" lengthAdjust="spacing" textLength="101.4038" x="1182.4014" y="944.2466">Confirm update</text></g><g class="message" data-participant-1="AccountService" data-participant-2="Service"><polygon fill="#181818" points="918.4585,974.4453,908.4585,978.4453,918.4585,982.4453,914.4585,978.4453" style="stroke:#181818;stroke-width:1;"/><line style="stroke:#181818;stroke-width:1;stroke-dasharray:2.0,2.0;" x1="912.4585" x2="1164.4014" y1="978.4453" y2="978.4453"/><text fill="#000000" font-family="sans-serif" font-size="13" lengthAdjust="spacing" textLength="156.7173" x="924.4585" y="973.3794">Confirm balance update</text></g><g class="message" data-participant-1="Service" data-participant-2="Controller"><polygon fill="#181818" points="758.0664,1003.5781,748.0664,1007.5781,758.0664,1011.5781,754.0664,1007.5781" style="stroke:#181818;stroke-width:1;"/><line style="stroke:#181818;stroke-width:1;stroke-dasharray:2.0,2.0;" x1="752.0664" x2="906.4585" y1="1007.5781" y2="1007.5781"/><text fill="#000000" font-family="sans-serif" font-size="13" lengthAdjust="spacing" textLength="136.3921" x="764.0664" y="1002.5122">Return created entry</text></g><g class="message" data-participant-1="Controller" data-participant-2="UI"><polygon fill="#181818" points="450.0151,1032.7109,440.0151,1036.7109,450.0151,1040.7109,446.0151,1036.7109" style="stroke:#181818;stroke-width:1;"/><line style="stroke:#181818;stroke-width:1;stroke-dasharray:2.0,2.0;" x1="444.0151" x2="746.0664" y1="1036.7109" y2="1036.7109"/><text fill="#000000" font-family="sans-serif" font-size="13" lengthAdjust="spacing" textLength="284.0513" x="456.0151" y="1031.645">Return HTTP 201 Created with entry details</text></g><g class="message" data-participant-1="UI" data-participant-2="User"><polygon fill="#181818" points="34.9551,1061.8438,24.9551,1065.8438,34.9551,1069.8438,30.9551,1065.8438" style="stroke:#181818;stroke-width:1;"/><line style="stroke:#181818;stroke-width:1;stroke-dasharray:2.0,2.0;" x1="28.9551" x2="438.0151" y1="1065.8438" y2="1065.8438"/><text fill="#000000" font-family="sans-serif" font-size="13" lengthAdjust="spacing" textLength="307.5503" x="40.9551" y="1060.7778">Display success message and updated balance</text></g><!--SRC=[nLKzRzim4DtrAmwPR201seuQ2YHEYheesY2sc_bCdXKY4gcIb5Fz-v8qAOkoa8vTAEdutdsz8sM5hGaUIHibiOQxZbTaOQkHlPA66zZGxuua8xWNM6biIhZbNCWAKCB3dvQa8NYGLlT5WSmg3Jj3kcXHMy54YzB2rJFjORU-0ZJkaMzvfY2pKkwfwffqG9q_Bz7zXlHHC0h0-9wZRXbJdRHZN6xAuIkqLAdSxyGsayKJjSe8LsyV28DjDfK9U6ITm3lx0flUM6fEGFTT5BwXSFFPzQw4xweI4jw4mp5DdAGLM9jYj_O03o_3wktCrR3e75TYGzVGeZ5lIlDb4QBSH8TFP3ijuTlp5gnw9HbS-Jr7B9tcfgsn1uxcPQzGypoR7tWKbGlZg7ugqZpC-w0uB0UbczpD5r7NmpOdYw8siC1Jbww1HJ6k0PkJXJkBMycmPUPeq-qROQUHGc_E8rNwpZa7GRA5fBVmSh_zkIpE84-9ufTWy4Wvi8XxvwwZMnUfjydu2slXSnsrTsZ-u3qgm3gjdMpW5SlzPxDRma58VjUlUMhGsakQOKOiFsFlKZmWv3CD4zEAZ8i8CnKaw3ZvoK4QfP9KzRbCK6FYf80vrb32HR3KscY_Z3EdGmAFonYEzsGObiMmC-lCWpdGwNfyHrDDZJhI7TReRjgpIcdY_uV0amYXxAxrqypZnhz3kFDq4Bg14-_T6KhG_Qa7YLACmUCpdDGAHpcrU7n-y_ljwtRx29y-V8HL98GhDB3IZJD_QvcECJ866hTWHUwlnsDkFENw5m00]--></g></svg>