<svg xmlns="http://www.w3.org/2000/svg" xmlns:xlink="http://www.w3.org/1999/xlink" xmlns:lucid="lucid" width="1180" height="920"><g transform="translate(-2740 -1520)" lucid:page-tab-id="0_0"><path d="M3119.2 1846.62v-28.4c1.54-.74 2.7-1.8 3.46-3.34 1.8-3.6.25-8.02-3.46-9.76-3.7-1.8-8.06-.26-9.86 3.34-1.8 3.6-.25 8.02 3.33 9.76v28.33h-27.65v-18.04c2.44-1.33 3.97-3.67 3.97-6.47 0-4.08-3.34-7.35-7.43-7.3-2.82 0-5.25 1.42-6.53 3.9-1.92 3.6-.5 8 3.07 9.88v18.12h-1.4c-13.7-.07-24.7-11.03-24.7-24.6 0-13.5 11.26-24.38 24.96-24.38 3.2.07 5.9.53 8.83 1.67 7.93-16.7 28.15-23.98 45.05-16.16 7.42 3.4 12.8 8.55 16.25 15.9 2.7-.93 5.12-1.27 8.07-1.33 13.7 0 24.83 11.03 24.83 24.6 0 13.56-11.14 24.52-24.83 24.52h-1.67v-18.3c1.4-.75 2.44-1.75 3.08-3.1 1.92-3.6.5-8-3.08-9.87-3.58-1.88-8.06-.47-9.98 3.07-1.92 3.6-.5 8.02 3.07 9.9v18.1z" stroke="#000" stroke-opacity="0" fill="#4285f4"/><path d="M3085.03 1865.55c6.1 1.4 10.22 6.63 10.03 12.77 0 7.32-6.02 13.28-13.47 13.34-7.46 0-13.47-5.96-13.47-13.27 0-6.16 4-11.32 10.12-12.86v-18.98h6.5zm-3.44 19.23c3.62 0 6.5-2.9 6.5-6.46 0-3.5-2.88-6.38-6.5-6.38-3.64 0-6.5 2.88-6.5 6.38 0 3.57 2.86 6.46 6.5 6.46zm72-19.23c7.15 1.84 11.45 9.1 9.54 16.22-1.9 7.06-9.26 11.3-16.42 9.4-7.17-1.85-11.46-9.16-9.55-16.23 1.24-4.73 4.77-8.17 9.55-9.4v-18.92h6.87zm-3.45 19.23c2.96.12 5.44-1.54 6.5-4.24 1.14-3.38-.58-7-3.92-8.24-.67-.18-1.24-.3-1.9-.37-3.54-.18-6.6 2.52-6.8 6.1-.18 3.5 2.6 6.56 6.12 6.75zm-30.84-2.77c7.17 1.8 11.56 8.92 9.75 15.98-1.82 7.07-9.07 11.37-16.23 9.65-7.16-1.78-11.56-8.97-9.74-16.03 1.24-4.86 4.77-8.36 9.74-9.6v-35.26h6.87zm-3.52 19.24c.86 0 1.62-.18 2.38-.5 3.35-1.34 4.97-5.1 3.63-8.35-1.44-3.32-5.16-4.86-8.5-3.5-3.35 1.34-4.97 5.1-3.54 8.35 1.05 2.4 3.34 3.87 6.02 3.8z" stroke="#000" stroke-opacity="0" fill="#669df6"/><path d="M3071.2 1805.6v40.96h89.6v-40.96z" stroke="#000" stroke-opacity="0" fill-opacity="0"/><use xlink:href="#a" transform="matrix(1,0,0,1,3052,1913) translate(13.1904296875 16.69921875)"/><use xlink:href="#b" transform="matrix(1,0,0,1,3052,1913) translate(45.6396484375 16.69921875)"/><path d="M2740 1780h120v86h-120z" fill-opacity="0"/><path d="M2860 1839c-.36-13.5-10.08-24.43-23.4-26.15-.84-18.75-16.32-33.37-35.04-32.85-15.12-.34-28.08 8.5-33.48 22.8-15.96 1.97-27.72 15.2-28.08 31.47.72 18.14 15.84 32.33 33.84 31.64h57.6c.48.1.96.1 1.44 0 14.88-.07 26.76-11.94 27.12-26.9z" fill="url(#c)"/><path d="M2776.2 1832.3h-5.88c-.65-2.82-2.66-4.86-5.44-5.5-3.93-.9-7.83 1.54-8.72 5.5-.92 3.94 1.5 7.9 5.44 8.8 3.92.92 7.82-1.56 8.72-5.5h5.88c.73 0 1.32.6 1.32 1.35v28.96h3.28v-28.95c0-2.56-2.06-4.64-4.6-4.64zm-13 5.94c-2.37 0-4.28-1.92-4.28-4.32 0-2.4 1.9-4.32 4.27-4.32 2.35 0 4.26 1.93 4.26 4.32 0 2.4-1.9 4.32-4.27 4.32z" fill="#9cebff"/><path d="M2799.57 1833.8v-6.7c0-2.64-2.1-4.7-4.67-4.7h-10.33c-.75 0-1.33-.64-1.33-1.4v-35.73l-1.54.82-1.74.93v33.66c0 2.56 2.07 4.63 4.6 4.63h10.34c.76 0 1.4.63 1.4 1.45v6.7c-3.36.76-5.68 3.64-5.68 7.15 0 3.45 2.27 6.33 5.6 7.15 3.9.94 7.83-1.5 8.74-5.46.93-3.95-1.5-7.9-5.4-8.84zm-1.67 11.47c-2.37 0-4.28-1.94-4.28-4.33 0-2.38 1.9-4.32 4.28-4.32 2.35 0 4.26 1.94 4.26 4.32 0 2.4-1.9 4.33-4.26 4.33z" fill="#f2f2f2"/><path d="M2836.88 1819.67c-3.44 0-6.28 2.27-7.07 5.62-.94 3.9 1.5 7.9 5.4 8.84v1.33c0 .76-.66 1.4-1.4 1.4h-13.35v-23.7c0-2.54-2.1-4.63-4.63-4.63h-6.88c-.7-3.4-3.63-5.75-7.07-5.75-3.43 0-6.27 2.27-7.07 5.68-.95 3.92 1.5 7.9 5.43 8.8 3.88.93 7.82-1.53 8.7-5.45h7.18c.76 0 1.36.57 1.36 1.33V1866h3.24v-25.8h13.34c2.6 0 4.68-2.14 4.68-4.73v-1.33c3.4-.76 5.68-3.66 5.68-7.14v-.32c-.15-4.04-3.54-7.2-7.52-7zm-35-5.25c-2.35 0-4.3-1.9-4.3-4.3 0-2.34 1.95-4.3 4.3-4.3 2.38 0 4.27 1.96 4.27 4.3 0 2.4-1.9 4.3-4.28 4.3zm35 16.88c-2.4.06-4.33-1.9-4.38-4.24 0-2.4 1.9-4.36 4.23-4.36 2.34-.06 4.28 1.83 4.33 4.24v.06c0 2.34-1.9 4.23-4.18 4.3z" fill="#9cebff"/><use xlink:href="#d" transform="matrix(1,0,0,1,2710,1875) translate(59.525 14.4)"/><path d="M3909.95 1519.68l1.9.45 1.8.75 1.68 1.03 1.5 1.28 1.26 1.5 1.02 1.66.75 1.8.45 1.9.15 1.94v616.04l-.15 1.93-.45 1.9-.75 1.8-1.03 1.68-1.28 1.5-1.5 1.26-1.66 1.02-1.8.75-1.9.45-1.94.15H3124.8l-1.94-.15-1.9-.45-1.8-.75-1.68-1.03-1.5-1.28-1.26-1.5-1.02-1.66-.75-1.8-.46-1.9-.16-1.94V1935h.95v212.98l.13 1.82.43 1.76.7 1.67.93 1.54 1.17 1.38 1.37 1.17 1.55.95 1.66.7 1.75.4 1.84.16h783.14l1.82-.15 1.76-.42 1.67-.7 1.54-.94 1.38-1.17 1.17-1.38.95-1.54.7-1.67.4-1.76.16-1.82v-615.96l-.15-1.82-.42-1.76-.7-1.67-.94-1.54-1.17-1.38-1.38-1.17-1.54-.95-1.67-.7-1.76-.4-1.82-.16h-783.14l-1.83.15-1.74.42-1.68.7-1.54.94-1.37 1.17-1.18 1.38-.95 1.54-.7 1.67-.4 1.76-.16 1.82v247.72h-.96v-247.76l.15-1.93.45-1.9.75-1.8 1.02-1.68 1.27-1.5 1.48-1.26 1.67-1.02 1.8-.75 1.9-.45 1.95-.15h783.22z" stroke="#3a414a" stroke-width=".05" fill="#3a414a"/><path d="M3113.3 1780.2l-.96.07v-.55h.95z" fill="#3a414a"/><path stroke="#3a414a" stroke-width=".05" fill="#3a414a"/><path d="M3114.36 1914h-3.1l1.56-4.75z" fill="#3a414a"/><path d="M3114.86 1914h-1l-1.04-3.2-1.05 3.2h-1l2.05-6.3zM2896.8 1823.47h-36.3v-.94h36.3zm138.9 0h-20.44v-.94h20.43z" stroke="#3a414a" stroke-width=".05" fill="#3a414a"/><path d="M2860.5 1823.47h-.5v-.94h.5z" fill="#3a414a"/><path stroke="#3a414a" stroke-width=".05" fill="#3a414a"/><path d="M3050.45 1823l-14.26 4.63v-9.27z" fill="#3a414a"/><path d="M3052 1823l-16.3 5.3v-10.6zm-15.34 3.98l12.26-3.98-12.26-3.98z" stroke="#3a414a" stroke-width=".05" fill="#3a414a"/><use xlink:href="#e" transform="matrix(1,0,0,1,2896.811178808048,1812.2) translate(0.005000000000002558 14.4)"/><use xlink:href="#f" transform="matrix(1,0,0,1,2896.811178808048,1812.2) translate(51.505 14.4)"/><path d="M3720 1615.07h91v120h-91z" fill-opacity="0"/><path d="M3765.5 1647.77c-25.12 0-45.5-7.05-45.5-16.38v87.28c0 8.92 20.02 16.28 44.86 16.4h.64c25.12 0 45.5-7.06 45.5-16.4v-87.3c0 9.03-20.38 16.4-45.5 16.4z" fill="url(#g)"/><path d="M3811 1631.45c0 9.04-20.38 16.38-45.5 16.38s-45.5-7.08-45.5-16.38c0-9.3 20.38-16.38 45.5-16.38s45.5 7.07 45.5 16.38" fill="#e8e8e8"/><path d="M3800.35 1630.12c0 5.8-15.63 10.48-34.83 10.48-19.26 0-34.96-4.67-34.96-10.4 0-5.74 15.63-10.48 34.96-10.48 19.27 0 34.83 4.68 34.83 10.4" fill="#50e6ff"/><path d="M3765.55 1632.75c-9.9-.24-18.3.98-27.7 4.03 9.4 2.98 17.8 4.14 27.7 3.8 9.85.24 18.26-1 27.6-4.1-9.4-2.88-17.75-4.02-27.6-3.73z" fill="#198ab3"/><path d="M3786.8 1675.16v2.95c-.3 1.55-.5 2.9-.55 4.43 0 .83 0 2.1.36 3.27.32 1.15 0 1.92 0 2.56-.05 2.24-.6 4.17-1.76 6.02-.07.2-.07.32 0 .52l.67.83c3.38-5.5 5.65-10.57 7.55-16.8 1.97-6.72 2.2-11.53.62-13.58-4.66-5.7-11.84-8-19-6.02 2.56 1.22 4.52 2.7 6.42 4.68 3.5 2.96 5.4 6.67 5.7 11.16zm-2.2.5c-1.97-.44-3.8-.25-5.6.65-2.08 1.3-1.4 3.92 0 7.06.75 2.18 1.48 3.97 2.46 6.03l.68 1.14c.3.58.55 1.02.73 1.4l.62.9c.85-1.47 1.2-2.88 1.2-4.54.08-.84.08-1.54 0-2.38 0-1.2 0-2.56-.3-3.46.07-1.73.25-3.14.56-4.87-.25-.77-.12-1.54-.06-2.12zm-2.16 2.96c-.36.32-.73.58-1.22.7-.37.07-.68.07-1.04 0-.37-.38-.56-.83-.5-1.34 0-.5.8-.96 1.72-1.1h1.35s.68 0 .68.6c-.13.37-.3.7-.68.88zm-33.24 6.28v-1.22c.06-.45.06-.77 0-1.22-.24-2.43-.24-4.55 0-7.05.43-2.8 1.1-5.1 2.15-7.74.86-2.63 2.14-4.68 4.1-6.66-3.3-.96-6.2-1.4-9.56-1.4-2.9-.14-5.4.56-7.86 2.1-3.68 3.33-5.28 7.95-4.42 12.88.68 5.64 1.78 10.38 3.5 15.83 2.45 8.02 5.2 12.95 7.6 13.8 1.1.3 2.2 0 3.38-1.55 1.96-2.37 3.8-4.42 4.84-5.64-3.3-3.32-4.54-7.74-3.43-12.36zm1.84 2.82c0 1.4.12 2.56.43 3.9.43 1.23 1.04 2.2 1.84 3.15.75.77 1.54 1.34 2.52 1.8.92.3 1.72.5 2.76.5 0-1.15 1-2.7 1.6-4.22.68-1.4 1.1-2.63 1.53-4.17.2-2.76.2-5.06 0-7.82 0-.64 0-1.34-.42-2.1-.06-.78-.36-1.42-.86-1.93-.6-.58-1.22-.9-2.02-1.16h-1.4c-1.24.2-2.28.45-3.38 1.03-.86.38-1.54.77-2.27 1.34v8.92zm4.66-9.5c.68-.18 1.35-.18 2.03 0 .5.08.92.2 1.35.46.6 0 .67.77.6.96-.17.4-.48.7-.85.9l-.43-.25c-1.04-.2-1.78-.98-1.96-2zm5.28 21.22c-.37 0-.68.13-.92.4l-.98 1.2c-1.23 1.48-1.72 2-5.22 2.7-.67.06-1.22.25-1.84.7.55.4 1.05.64 1.72.77 1.72.6 3.37.6 5.1 0 1.1-.5 1.9-1 2.75-1.85.73-.57 1.22-1.28 1.46-2.17.06-.77-.18-1.4-.73-2-.3-.18-.68-.25-1.05-.12zm32.7 0c-2.7.97-5.3.97-7.98 0-.37-.12-.68-.12-1.05 0-.5.13-.92.45-1.16.97-.14.78-.14 1.42 0 2.18 2.7.65 5.2.4 7.78-.7 1.35-.58 2.4-1.28 3.37-2.37zm-17-15.12c-1.04-2.88-2.45-7.05 1.23-9.6 2.03-1.1 4.1-1.48 6.32-1.1-.98-3.14-2.33-5.64-4.54-8.07l-.67-.7-.42-.46c-.12-.2-.24-.33-.43-.46-1.47-1.28-2.94-2.17-4.78-2.94-2.58-1.16-5.03-1.6-7.85-1.54-1.78-.13-3.32.06-4.97.77-.74.2-1.4.45-2.15.77-2.5 1.86-4.17 4.1-5.2 7.05-.75 2.43-1.24 4.55-1.48 7.1 2.2-1.34 4.47-1.85 7.05-1.66 3.3.25 5.76 3.13 5.46 6.4.3 3.2.3 5.83 0 8.97-.43 1.67-.92 2.95-1.6 4.5-.43 1.2-1.04 2.42-1.3 3.45 1.06-.07 1.98.25 2.7.96 1 1.03 1.5 2.3 1.36 3.78h.12v1.67c-.56 6.08-.07 11.34 1.7 17.23.44.7 1 1.16 1.73 1.48.68.45 1.35.7 2.15.7 2.7.26 5.15-.57 7.1-2.37 1.3-1.34 1.98-2.82 2.1-4.68.5-3.15 1.53-12 1.65-14.1-.12-1.16.13-2.12.68-3.14.5-.77 1.1-1.3 1.9-1.67-3.5-3.92-5.83-7.83-7.6-12.83z" fill="#f2f2f2"/><use xlink:href="#h" transform="matrix(1,0,0,1,3690,1744.066450837817) translate(2.4000000000000057 14.4)"/><use xlink:href="#i" transform="matrix(1,0,0,1,3690,1744.066450837817) translate(104.7 14.4)"/><use xlink:href="#j" transform="matrix(1,0,0,1,3690,1744.066450837817) translate(134.65 14.4)"/><use xlink:href="#k" transform="matrix(1,0,0,1,3690,1744.066450837817) translate(47.05 36)"/><path d="M3720 1935.07h91v120h-91z" fill-opacity="0"/><path d="M3765.5 1967.77c-25.12 0-45.5-7.05-45.5-16.38v87.28c0 8.92 20.02 16.28 44.86 16.4h.64c25.12 0 45.5-7.06 45.5-16.4v-87.3c0 9.03-20.38 16.4-45.5 16.4z" fill="url(#l)"/><path d="M3811 1951.45c0 9.04-20.38 16.38-45.5 16.38s-45.5-7.08-45.5-16.38c0-9.3 20.38-16.38 45.5-16.38s45.5 7.07 45.5 16.38" fill="#e8e8e8"/><path d="M3800.35 1950.12c0 5.8-15.63 10.48-34.83 10.48-19.26 0-34.96-4.67-34.96-10.4 0-5.74 15.63-10.48 34.96-10.48 19.27 0 34.83 4.68 34.83 10.4" fill="#50e6ff"/><path d="M3765.55 1952.75c-9.9-.24-18.3.98-27.7 4.03 9.4 2.98 17.8 4.14 27.7 3.8 9.85.24 18.26-1 27.6-4.1-9.4-2.88-17.75-4.02-27.6-3.73z" fill="#198ab3"/><path d="M3786.8 1995.16v2.95c-.3 1.55-.5 2.9-.55 4.43 0 .83 0 2.1.36 3.27.32 1.15 0 1.92 0 2.56-.05 2.24-.6 4.17-1.76 6.02-.07.2-.07.32 0 .52l.67.83c3.38-5.5 5.65-10.57 7.55-16.8 1.97-6.72 2.2-11.53.62-13.58-4.66-5.7-11.84-8-19-6.02 2.56 1.22 4.52 2.7 6.42 4.68 3.5 2.96 5.4 6.67 5.7 11.16zm-2.2.5c-1.97-.44-3.8-.25-5.6.65-2.08 1.3-1.4 3.92 0 7.06.75 2.18 1.48 3.97 2.46 6.03l.68 1.14c.3.58.55 1.02.73 1.4l.62.9c.85-1.47 1.2-2.88 1.2-4.54.08-.84.08-1.54 0-2.38 0-1.2 0-2.56-.3-3.46.07-1.73.25-3.14.56-4.87-.25-.77-.12-1.54-.06-2.12zm-2.16 2.96c-.36.32-.73.58-1.22.7-.37.07-.68.07-1.04 0-.37-.38-.56-.83-.5-1.34 0-.5.8-.96 1.72-1.1h1.35s.68 0 .68.6c-.13.37-.3.7-.68.88zm-33.24 6.28v-1.22c.06-.45.06-.77 0-1.22-.24-2.43-.24-4.55 0-7.05.43-2.8 1.1-5.1 2.15-7.74.86-2.63 2.14-4.68 4.1-6.66-3.3-.96-6.2-1.4-9.56-1.4-2.9-.14-5.4.56-7.86 2.1-3.68 3.33-5.28 7.95-4.42 12.88.68 5.64 1.78 10.38 3.5 15.83 2.45 8.02 5.2 12.95 7.6 13.8 1.1.3 2.2 0 3.38-1.55 1.96-2.37 3.8-4.42 4.84-5.64-3.3-3.32-4.54-7.74-3.43-12.36zm1.84 2.82c0 1.4.12 2.56.43 3.9.43 1.23 1.04 2.2 1.84 3.15.75.77 1.54 1.34 2.52 1.8.92.3 1.72.5 2.76.5 0-1.15 1-2.7 1.6-4.22.68-1.4 1.1-2.63 1.53-4.17.2-2.76.2-5.06 0-7.82 0-.64 0-1.34-.42-2.1-.06-.78-.36-1.42-.86-1.93-.6-.58-1.22-.9-2.02-1.16h-1.4c-1.24.2-2.28.45-3.38 1.03-.86.38-1.54.77-2.27 1.34v8.92zm4.66-9.5c.68-.18 1.35-.18 2.03 0 .5.08.92.2 1.35.46.6 0 .67.77.6.96-.17.4-.48.7-.85.9l-.43-.25c-1.04-.2-1.78-.98-1.96-2zm5.28 21.22c-.37 0-.68.13-.92.4l-.98 1.2c-1.23 1.48-1.72 2-5.22 2.7-.67.06-1.22.25-1.84.7.55.4 1.05.64 1.72.77 1.72.6 3.37.6 5.1 0 1.1-.5 1.9-1 2.75-1.85.73-.57 1.22-1.28 1.46-2.17.06-.77-.18-1.4-.73-2-.3-.18-.68-.25-1.05-.12zm32.7 0c-2.7.97-5.3.97-7.98 0-.37-.12-.68-.12-1.05 0-.5.13-.92.45-1.16.97-.14.78-.14 1.42 0 2.18 2.7.65 5.2.4 7.78-.7 1.35-.58 2.4-1.28 3.37-2.37zm-17-15.12c-1.04-2.88-2.45-7.05 1.23-9.6 2.03-1.1 4.1-1.48 6.32-1.1-.98-3.14-2.33-5.64-4.54-8.07l-.67-.7-.42-.46c-.12-.2-.24-.33-.43-.46-1.47-1.28-2.94-2.17-4.78-2.94-2.58-1.16-5.03-1.6-7.85-1.54-1.78-.13-3.32.06-4.97.77-.74.2-1.4.45-2.15.77-2.5 1.86-4.17 4.1-5.2 7.05-.75 2.43-1.24 4.55-1.48 7.1 2.2-1.34 4.47-1.85 7.05-1.66 3.3.25 5.76 3.13 5.46 6.4.3 3.2.3 5.83 0 8.97-.43 1.67-.92 2.95-1.6 4.5-.43 1.2-1.04 2.42-1.3 3.45 1.06-.07 1.98.25 2.7.96 1 1.03 1.5 2.3 1.36 3.78h.12v1.67c-.56 6.08-.07 11.34 1.7 17.23.44.7 1 1.16 1.73 1.48.68.45 1.35.7 2.15.7 2.7.26 5.15-.57 7.1-2.37 1.3-1.34 1.98-2.82 2.1-4.68.5-3.15 1.53-12 1.65-14.1-.12-1.16.13-2.12.68-3.14.5-.77 1.1-1.3 1.9-1.67-3.5-3.92-5.83-7.83-7.6-12.83z" fill="#f2f2f2"/><use xlink:href="#h" transform="matrix(1,0,0,1,3690,2064.066450837817) translate(2.4000000000000057 14.4)"/><use xlink:href="#i" transform="matrix(1,0,0,1,3690,2064.066450837817) translate(104.7 14.4)"/><use xlink:href="#j" transform="matrix(1,0,0,1,3690,2064.066450837817) translate(134.65 14.4)"/><use xlink:href="#k" transform="matrix(1,0,0,1,3690,2064.066450837817) translate(47.05 36)"/><path d="M3719.5 1675.07h-208.77" stroke="#3a414a" fill="none"/><path d="M3719.5 1674.6h3.5v.94h-3.5zM3510.74 1675.54h-.52v-.95h.52z" stroke="#3a414a" stroke-width=".05" fill="#3a414a"/><path d="M3719.5 1995.07h-201.58" stroke="#3a414a" fill="none"/><path d="M3719.5 1994.6h3.5v.94h-3.5zM3517.93 1995.54h-.52l.02-.95h.5zM3442.82 1919.5h-.95v-31.1h.95zm.05-112.98l-.05 48.57v11.7h-.95v-11.7l.05-48.58z" stroke="#3a414a" stroke-width=".05" fill="#3a414a"/><path d="M3442.82 1920l-.95-.02v-.5h.95z" fill="#3a414a"/><path stroke="#3a414a" stroke-width=".05" fill="#3a414a"/><path d="M3447.03 1806.02h-9.27l4.63-14.27z" fill="#3a414a"/><path d="M3447.68 1806.5h-10.57l5.3-16.3zm-9.27-.96h7.98l-4-12.25z" stroke="#3a414a" stroke-width=".05" fill="#3a414a"/><use xlink:href="#m" transform="matrix(1,0,0,1,3418.9177114999657,1866.8) translate(0.004999999999999005 14.4)"/><path d="M3380.47 2223.64h-.94v-3.94h.94zm0-7.88h-.94v-7.87h.94zm0-11.8h-.94v-.62h.94zm0-25.9h-.94v-8.78h.94zm0-13.17h-.94v-4.4h.94z" stroke="#3a414a" stroke-width=".05" fill="#3a414a"/><path d="M3380.47 2160.5h-.94v-.5h.94z" stroke="#3a414a" stroke-width=".05" fill="#3a414a"/><path d="M3380 2238.4l-4.64-14.26h9.28z" fill="#3a414a"/><path d="M3380 2239.94l-5.3-16.28h10.6zm-3.98-15.33l3.98 12.26 3.98-12.25z" stroke="#3a414a" stroke-width=".05" fill="#3a414a"/><use xlink:href="#n" transform="matrix(1,0,0,1,3346.575,2181.7414536055408) translate(0.005000000000002558 14.4)"/><path d="M3624.28 2315.54h-5.17v-.95h5.18zm-10.35 0h-10.35v-.95h10.35zm-117.24 0h-1.82v-.95h1.8zm-7 0h-10.35v-.95h10.35zm-15.52 0H3469v-.95h5.18z" stroke="#3a414a" stroke-width=".05" fill="#3a414a"/><path d="M3624.78 2315.47l-.5.07v-.95h.5z" fill="#3a414a"/><path stroke="#3a414a" stroke-width=".05" fill="#3a414a"/><path d="M3468.5 2319.7l-14.27-4.63 14.27-4.64z" fill="#3a414a"/><path d="M3468.97 2320.36l-16.27-5.3 16.28-5.28zm-13.2-5.3l12.26 4v-7.97z" stroke="#3a414a" stroke-width=".05" fill="#3a414a"/><use xlink:href="#o" transform="matrix(1,0,0,1,3496.688718908296,2307.066450837817) translate(0.005000000000002558 10.666666666666668)"/><use xlink:href="#p" transform="matrix(1,0,0,1,3496.688718908296,2307.066450837817) translate(25.856851851851857 10.666666666666668)"/><path d="M3700.43 2239.5h-.95v-5.27h.95zm0-10.53h-.95v-10.5h.95zm0-31.55h-.95v-10.52h.95zm0-15.78h-.95v-5.26h.95z" stroke="#3a414a" stroke-width=".05" fill="#3a414a"/><path d="M3700.43 2240h-.95v-.52h.95z" fill="#3a414a"/><path stroke="#3a414a" stroke-width=".05" fill="#3a414a"/><path d="M3704.6 2175.88h-9.28l4.63-14.26z" fill="#3a414a"/><path d="M3705.24 2176.36h-10.57l5.28-16.28zm-9.27-.95h7.97l-4-12.24z" stroke="#3a414a" stroke-width=".05" fill="#3a414a"/><use xlink:href="#o" transform="matrix(1,0,0,1,3647.472188766977,2201.0502997928866) translate(0.005000000000002558 10.666666666666668)"/><use xlink:href="#p" transform="matrix(1,0,0,1,3647.472188766977,2201.0502997928866) translate(25.856851851851857 10.666666666666668)"/><path d="M3178.02 1811.7l-.45-.83 74.1-39.22h2.03zm176.54-93.45l-60.06 31.8h-2.03l61.65-32.64z" stroke="#3a414a" stroke-width=".05" fill="#3a414a"/><path d="M3178.03 1811.7l-.46.25-.43-.85.45-.23z" fill="#3a414a"/><path stroke="#3a414a" stroke-width=".05" fill="#3a414a"/><path d="M3356.95 1721.7l-4.34-8.2 14.8-2.58z" fill="#3a414a"/><path d="M3356.84 1722.5l-4.95-9.35 16.85-2.95zm-3.5-8.64l3.72 7.04 8.97-9.26z" stroke="#3a414a" stroke-width=".05" fill="#3a414a"/><use xlink:href="#q" transform="matrix(1,0,0,1,3223.611794547303,1750.047821662289) translate(0.005000000000002558 14.4)"/><use xlink:href="#r" transform="matrix(1,0,0,1,3223.611794547303,1750.047821662289) translate(50.005 14.4)"/><path d="M3359.4 1956.17l-.4.86-65.7-30.42h2.25zm-98.4-45.57h-2.27l-104.9-48.55.4-.87z" stroke="#3a414a" stroke-width=".05" fill="#3a414a"/><path d="M3154.26 1861.2l-.4.85-.27-.12v-1.05z" fill="#3a414a"/><path stroke="#3a414a" stroke-width=".05" fill="#3a414a"/><path d="M3372.6 1962.8l-14.88-1.78 3.9-8.42z" fill="#3a414a"/><path d="M3374 1963.45l-17-2.04 4.45-9.6zm-15.58-2.83l12.8 1.54-9.45-8.76z" stroke="#3a414a" stroke-width=".05" fill="#3a414a"/><use xlink:href="#s" transform="matrix(1,0,0,1,3186.8428088302244,1910.604500214116) translate(0.0049999999999954525 10.666666666666668)"/><use xlink:href="#t" transform="matrix(1,0,0,1,3186.8428088302244,1910.604500214116) translate(72.52351851851853 10.666666666666668)"/><use xlink:href="#u" transform="matrix(1,0,0,1,3186.8428088302244,1910.604500214116) translate(123.56055555555557 10.666666666666668)"/><path d="M3496.93 1608.86c-2.25 5.25-4.66 9.46-8.12 13.96l-3-3c-30.5-28.08-77.85-26.13-105.96 4.35-28.1 30.33-26.15 77.77 4.36 105.85l2.7 2.55c12.63 10.66 26.46 16.2 43 17.4 41.18 2.87 77.1-28.2 79.96-69.5 2.1-18.77-3.6-42.94-12.93-71.6zm-101.9 121.76c-2.26 2.7-6.32 3.15-9.03.9-2.7-2.26-3.15-6.16-.9-8.86 2.26-2.85 6.16-3.15 8.87-1.05 2.7 2.26 3.16 6.3 1.05 9.02zm101.3-22.37c-18.34 24.62-57.87 16.2-83.12 17.4 0 0-4.5.3-9 .9 0 0 1.8-.74 3.9-1.5 17.74-6.14 26.15-7.35 36.97-12.9 20.3-10.36 40.44-33.18 44.5-56.6-7.67 22.52-31.27 42.04-52.6 49.84-14.6 5.4-41.05 10.65-41.05 10.65l-1.05-.6c-18.04-8.7-18.64-47.74 14.13-60.2 14.43-5.7 27.96-2.55 43.6-6.3 16.52-3.76 35.76-16.22 43.43-32.43 8.72 26.12 19.24 66.65.3 91.73z" stroke="#000" stroke-opacity="0" stroke-width="1.55" fill="#6db33f"/><path d="M3360 1758.13a8 8 0 0 1 8-8h148.8a8 8 0 0 1 8 8v24a8 8 0 0 1-8 8H3368a8 8 0 0 1-8-8z" fill="none"/><g><use xlink:href="#v" transform="matrix(1,0,0,1,3360,1750.132901675634) translate(6.174999999999997 23.6)"/><use xlink:href="#w" transform="matrix(1,0,0,1,3360,1750.132901675634) translate(58.075 23.6)"/></g><path d="M3504.12 1928.86c-2.26 5.25-4.66 9.46-8.12 13.96l-3-3c-30.52-28.08-77.86-26.13-105.97 4.35-28.1 30.33-26.15 77.77 4.36 105.84l2.7 2.57c12.62 10.66 26.45 16.2 42.98 17.4 41.2 2.87 77.1-28.2 79.97-69.5 2.1-18.77-3.6-42.94-12.93-71.6zm-101.9 121.76c-2.26 2.7-6.32 3.15-9.03.9-2.7-2.26-3.16-6.16-.9-8.86 2.24-2.85 6.15-3.15 8.86-1.05 2.7 2.26 3.16 6.3 1.05 9.02zm101.3-22.37c-18.34 24.62-57.87 16.2-83.12 17.4 0 0-4.5.3-9.02.9 0 0 1.8-.74 3.9-1.5 17.74-6.14 26.16-7.35 36.98-12.9 20.3-10.36 40.44-33.18 44.5-56.6-7.67 22.52-31.27 42.04-52.6 49.84-14.6 5.4-41.05 10.65-41.05 10.65l-1.04-.6c-18.04-8.7-18.64-47.74 14.13-60.2 14.42-5.7 27.95-2.55 43.58-6.3 16.53-3.76 35.77-16.22 43.44-32.43 8.72 26.12 19.24 66.65.3 91.73z" stroke="#000" stroke-opacity="0" stroke-width="1.55" fill="#6db33f"/><path d="M3367.2 2088a8 8 0 0 1 8-8H3524a8 8 0 0 1 8 8v24a8 8 0 0 1-8 8h-148.8a8 8 0 0 1-8-8z" fill="none"/><g><use xlink:href="#x" transform="matrix(1,0,0,1,3367.1890412515068,2080) translate(21.4 14.4)"/><use xlink:href="#y" transform="matrix(1,0,0,1,3367.1890412515068,2080) translate(83.4 14.4)"/><use xlink:href="#w" transform="matrix(1,0,0,1,3367.1890412515068,2080) translate(32.125 36)"/></g><path d="M3439.32 2248.86c-2.26 5.25-4.66 9.46-8.12 13.96l-3-3c-30.52-28.08-77.86-26.13-105.97 4.35-28.1 30.33-26.15 77.77 4.36 105.84l2.7 2.57c12.62 10.66 26.45 16.2 42.98 17.4 41.2 2.87 77.1-28.2 79.96-69.5 2.1-18.76-3.6-42.94-12.92-71.6zm-101.9 121.76c-2.26 2.7-6.32 3.15-9.03.9-2.7-2.26-3.16-6.16-.9-8.86 2.24-2.85 6.15-3.15 8.86-1.05 2.7 2.26 3.15 6.3 1.05 9.02zm101.3-22.37c-18.34 24.62-57.87 16.2-83.12 17.4 0 0-4.5.3-9.02.9 0 0 1.8-.74 3.9-1.5 17.74-6.14 26.16-7.35 36.98-12.9 20.3-10.36 40.44-33.18 44.5-56.6-7.67 22.52-31.27 42.04-52.6 49.84-14.6 5.4-41.05 10.65-41.05 10.65l-1.04-.6c-18.04-8.7-18.64-47.74 14.13-60.2 14.42-5.7 27.95-2.55 43.58-6.3 16.53-3.76 35.77-16.22 43.44-32.43 8.72 26.12 19.24 66.65.3 91.73z" stroke="#000" stroke-opacity="0" stroke-width="1.55" fill="#6db33f"/><path d="M3260 2408a8 8 0 0 1 8-8h224a8 8 0 0 1 8 8v24a8 8 0 0 1-8 8h-224a8 8 0 0 1-8-8z" fill="none"/><g><use xlink:href="#z" transform="matrix(1,0,0,1,3260,2400) translate(14.699999999999989 23.6)"/><use xlink:href="#A" transform="matrix(1,0,0,1,3260,2400) translate(76.64999999999999 23.6)"/><use xlink:href="#B" transform="matrix(1,0,0,1,3260,2400) translate(166.45 23.6)"/></g><path d="M3761.73 2248.86c-2.26 5.25-4.66 9.46-8.12 13.96l-3-3c-30.5-28.08-77.85-26.13-105.96 4.35-28.1 30.33-26.15 77.77 4.36 105.84l2.7 2.57c12.63 10.66 26.46 16.2 43 17.4 41.18 2.87 77.1-28.2 79.96-69.5 2.1-18.76-3.6-42.94-12.93-71.6zm-101.9 121.76c-2.26 2.7-6.32 3.15-9.03.9-2.7-2.26-3.15-6.16-.9-8.86 2.26-2.85 6.16-3.15 8.87-1.05 2.7 2.26 3.16 6.3 1.05 9.02zm101.3-22.37c-18.34 24.62-57.87 16.2-83.12 17.4 0 0-4.5.3-9 .9 0 0 1.8-.74 3.9-1.5 17.74-6.14 26.15-7.35 36.97-12.9 20.3-10.36 40.44-33.18 44.5-56.6-7.67 22.52-31.27 42.04-52.6 49.84-14.6 5.4-41.05 10.65-41.05 10.65l-1.05-.6c-18.04-8.7-18.64-47.74 14.13-60.2 14.43-5.7 27.96-2.55 43.6-6.3 16.52-3.76 35.76-16.22 43.43-32.43 8.72 26.12 19.24 66.65.3 91.73z" stroke="#000" stroke-opacity="0" stroke-width="1.55" fill="#6db33f"/><path d="M3624.8 2398.13a8 8 0 0 1 8-8h148.8a8 8 0 0 1 8 8v24a8 8 0 0 1-8 8h-148.8a8 8 0 0 1-8-8z" fill="none"/><g><use xlink:href="#C" transform="matrix(1,0,0,1,3624.7999999999993,2390.132901675634) translate(27.599999999999994 23.6)"/><use xlink:href="#D" transform="matrix(1,0,0,1,3624.7999999999993,2390.132901675634) translate(84.5 23.6)"/></g><defs><path fill="#3a414a" d="M973-380H363L226 0H28l556-1456h168L1309 0h-197zM421-538h495l-248-681" id="E"/><path fill="#3a414a" d="M1216-1011c-1 297-202 441-512 441H361V0H169v-1456h537c297-6 510 164 510 445zm-192 2c1-178-126-288-307-289H361v571h345c196 1 318-92 318-282" id="F"/><path fill="#3a414a" d="M375 0H183v-1456h192V0" id="G"/><g id="a"><use transform="matrix(0.0087890625,0,0,0.0087890625,0,0)" xlink:href="#E"/><use transform="matrix(0.0087890625,0,0,0.0087890625,11.7421875,0)" xlink:href="#F"/><use transform="matrix(0.0087890625,0,0,0.0087890625,23.09765625,0)" xlink:href="#G"/></g><path fill="#3a414a" d="M730-137c145 0 253-29 323-105v-327H716v-156h528v534C1148-51 964 20 729 20c-394 0-598-279-607-678v-127c-5-410 194-690 585-691 310-1 499 171 537 447h-192c-36-193-151-289-344-289-285 0-393 220-393 528v119c-5 296 140 534 415 534" id="H"/><path fill="#3a414a" d="M561-1102c238-4 403 126 403 351v498c0 99 13 178 38 237V0H808c-11-21-19-59-26-114C696-25 593 20 474 20c-199 0-368-130-365-320 4-251 214-359 490-356h180v-85c-1-135-86-212-229-212-115 0-232 67-233 171H131c20-205 206-316 430-320zM294-326c0 117 90 185 207 185 122 0 239-75 278-162v-222H634c-227 0-340 66-340 199" id="I"/><path fill="#3a414a" d="M456 20C285 20 205-92 206-268v-671H9v-143h197v-262h185v262h202v143H391v671c-9 125 92 149 207 118V0c-49 13-96 20-142 20" id="J"/><path fill="#3a414a" d="M599-131c141 0 220-65 285-146l113 88C906-50 770 20 589 20 281 21 93-214 93-545c0-223 93-397 233-485 74-48 154-72 240-72 300 2 449 218 445 537v77H278c0 197 129 357 321 357zm227-509c-3-180-88-310-260-310-170 0-264 140-282 310h542" id="K"/><path fill="#3a414a" d="M1098-255l208-827h185L1176 0h-150L763-820 507 0H357L43-1082h184l213 810 252-810h149" id="L"/><path fill="#3a414a" d="M494-271l252-811h198L509 167C425 381 299 474 84 421V271c167 16 242-37 283-173l41-110L22-1082h202" id="M"/><g id="b"><use transform="matrix(0.0087890625,0,0,0.0087890625,0,0)" xlink:href="#H"/><use transform="matrix(0.0087890625,0,0,0.0087890625,12.2607421875,0)" xlink:href="#I"/><use transform="matrix(0.0087890625,0,0,0.0087890625,22.0517578125,0)" xlink:href="#J"/><use transform="matrix(0.0087890625,0,0,0.0087890625,27.931640625,0)" xlink:href="#K"/><use transform="matrix(0.0087890625,0,0,0.0087890625,37.4677734375,0)" xlink:href="#L"/><use transform="matrix(0.0087890625,0,0,0.0087890625,50.994140625,0)" xlink:href="#I"/><use transform="matrix(0.0087890625,0,0,0.0087890625,60.6533203125,0)" xlink:href="#M"/></g><linearGradient gradientUnits="userSpaceOnUse" id="c" x1="2800" y1="1891.2" x2="2800" y2="1760.42"><stop offset="0%" stop-color="#0078d4"/><stop offset="16%" stop-color="#1380da"/><stop offset="53%" stop-color="#3c91e5"/><stop offset="82%" stop-color="#559cec"/><stop offset="100%" stop-color="#5ea0ef"/></linearGradient><path fill="#3a414a" d="M33 0v-248h34V0H33" id="N"/><path fill="#3a414a" d="M117-194c89-4 53 116 60 194h-32v-121c0-31-8-49-39-48C34-167 62-67 57 0H25l-1-190h30c1 10-1 24 2 32 11-22 29-35 61-36" id="O"/><path fill="#3a414a" d="M59-47c-2 24 18 29 38 22v24C64 9 27 4 27-40v-127H5v-23h24l9-43h21v43h35v23H59v120" id="P"/><path fill="#3a414a" d="M100-194c63 0 86 42 84 106H49c0 40 14 67 53 68 26 1 43-12 49-29l28 8c-11 28-37 45-77 45C44 4 14-33 15-96c1-61 26-98 85-98zm52 81c6-60-76-77-97-28-3 7-6 17-6 28h103" id="Q"/><path fill="#3a414a" d="M114-163C36-179 61-72 57 0H25l-1-190h30c1 12-1 29 2 39 6-27 23-49 58-41v29" id="R"/><g id="d"><use transform="matrix(0.05,0,0,0.05,0,0)" xlink:href="#N"/><use transform="matrix(0.05,0,0,0.05,5,0)" xlink:href="#O"/><use transform="matrix(0.05,0,0,0.05,15,0)" xlink:href="#P"/><use transform="matrix(0.05,0,0,0.05,20,0)" xlink:href="#Q"/><use transform="matrix(0.05,0,0,0.05,30,0)" xlink:href="#R"/><use transform="matrix(0.05,0,0,0.05,35.95,0)" xlink:href="#O"/><use transform="matrix(0.05,0,0,0.05,45.95,0)" xlink:href="#Q"/><use transform="matrix(0.05,0,0,0.05,55.95,0)" xlink:href="#P"/></g><path fill="#3a414a" d="M197 0v-115H63V0H30v-248h33v105h134v-105h34V0h-34" id="S"/><path fill="#3a414a" d="M127-220V0H93v-220H8v-28h204v28h-85" id="T"/><path fill="#3a414a" d="M30-248c87 1 191-15 191 75 0 78-77 80-158 76V0H30v-248zm33 125c57 0 124 11 124-50 0-59-68-47-124-48v98" id="U"/><g id="e"><use transform="matrix(0.05,0,0,0.05,0,0)" xlink:href="#S"/><use transform="matrix(0.05,0,0,0.05,12.950000000000001,0)" xlink:href="#T"/><use transform="matrix(0.05,0,0,0.05,23.900000000000002,0)" xlink:href="#T"/><use transform="matrix(0.05,0,0,0.05,34.85,0)" xlink:href="#U"/></g><path fill="#3a414a" d="M233-177c-1 41-23 64-60 70L243 0h-38l-65-103H63V0H30v-248c88 3 205-21 203 71zM63-129c60-2 137 13 137-47 0-61-80-42-137-45v92" id="V"/><path fill="#3a414a" d="M145-31C134-9 116 4 85 4 32 4 16-35 15-94c0-59 17-99 70-100 32-1 48 14 60 33 0-11-1-24 2-32h30l-1 268h-32zM93-21c41 0 51-33 51-76s-8-73-50-73c-40 0-46 35-46 75s5 74 45 74" id="W"/><path fill="#3a414a" d="M84 4C-5 8 30-112 23-190h32v120c0 31 7 50 39 49 72-2 45-101 50-169h31l1 190h-30c-1-10 1-25-2-33-11 22-28 36-60 37" id="X"/><path fill="#3a414a" d="M135-143c-3-34-86-38-87 0 15 53 115 12 119 90S17 21 10-45l28-5c4 36 97 45 98 0-10-56-113-15-118-90-4-57 82-63 122-42 12 7 21 19 24 35" id="Y"/><g id="f"><use transform="matrix(0.05,0,0,0.05,0,0)" xlink:href="#V"/><use transform="matrix(0.05,0,0,0.05,12.950000000000001,0)" xlink:href="#Q"/><use transform="matrix(0.05,0,0,0.05,22.950000000000003,0)" xlink:href="#W"/><use transform="matrix(0.05,0,0,0.05,32.95,0)" xlink:href="#X"/><use transform="matrix(0.05,0,0,0.05,42.95,0)" xlink:href="#Q"/><use transform="matrix(0.05,0,0,0.05,52.95,0)" xlink:href="#Y"/><use transform="matrix(0.05,0,0,0.05,61.95,0)" xlink:href="#P"/></g><linearGradient gradientUnits="userSpaceOnUse" id="g" x1="3719.94" y1="1683.29" x2="3811.01" y2="1683.28"><stop offset="0%" stop-color="#005ba1"/><stop offset="7%" stop-color="#0060a9"/><stop offset="36%" stop-color="#0071c8"/><stop offset="52%" stop-color="#0078d4"/><stop offset="64%" stop-color="#0074cd"/><stop offset="82%" stop-color="#006abb"/><stop offset="100%" stop-color="#005ba1"/></linearGradient><path fill="#3a414a" d="M100-194c62-1 85 37 85 99 1 63-27 99-86 99S16-35 15-95c0-66 28-99 85-99zM99-20c44 1 53-31 53-75 0-43-8-75-51-75s-53 32-53 75 10 74 51 75" id="Z"/><path fill="#3a414a" d="M177-190C167-65 218 103 67 71c-23-6-38-20-44-43l32-5c15 47 100 32 89-28v-30C133-14 115 1 83 1 29 1 15-40 15-95c0-56 16-97 71-98 29-1 48 16 59 35 1-10 0-23 2-32h30zM94-22c36 0 50-32 50-73 0-42-14-75-50-75-39 0-46 34-46 75s6 73 46 73" id="aa"/><path fill="#3a414a" d="M185-189c-5-48-123-54-124 2 14 75 158 14 163 119 3 78-121 87-175 55-17-10-28-26-33-46l33-7c5 56 141 63 141-1 0-78-155-14-162-118-5-82 145-84 179-34 5 7 8 16 11 25" id="ab"/><path fill="#3a414a" d="M140-251c81 0 123 46 123 126C263-53 228-8 163 1c7 30 30 48 69 40v23c-55 16-95-15-103-61C56-3 17-48 17-125c0-80 42-126 123-126zm0 227c63 0 89-41 89-101s-29-99-89-99c-61 0-89 39-89 99S79-25 140-24" id="ac"/><path fill="#3a414a" d="M30 0v-248h33v221h125V0H30" id="ad"/><g id="h"><use transform="matrix(0.05,0,0,0.05,0,0)" xlink:href="#U"/><use transform="matrix(0.05,0,0,0.05,12,0)" xlink:href="#Z"/><use transform="matrix(0.05,0,0,0.05,22,0)" xlink:href="#Y"/><use transform="matrix(0.05,0,0,0.05,31,0)" xlink:href="#P"/><use transform="matrix(0.05,0,0,0.05,36,0)" xlink:href="#aa"/><use transform="matrix(0.05,0,0,0.05,46,0)" xlink:href="#R"/><use transform="matrix(0.05,0,0,0.05,51.95,0)" xlink:href="#Q"/><use transform="matrix(0.05,0,0,0.05,61.95,0)" xlink:href="#ab"/><use transform="matrix(0.05,0,0,0.05,73.95,0)" xlink:href="#ac"/><use transform="matrix(0.05,0,0,0.05,87.95,0)" xlink:href="#ad"/></g><path fill="#3a414a" d="M30-248c118-7 216 8 213 122C240-48 200 0 122 0H30v-248zM63-27c89 8 146-16 146-99s-60-101-146-95v194" id="ae"/><path fill="#3a414a" d="M160-131c35 5 61 23 61 61C221 17 115-2 30 0v-248c76 3 177-17 177 60 0 33-19 50-47 57zm-97-11c50-1 110 9 110-42 0-47-63-36-110-37v79zm0 115c55-2 124 14 124-45 0-56-70-42-124-44v89" id="af"/><g id="i"><use transform="matrix(0.05,0,0,0.05,0,0)" xlink:href="#ae"/><use transform="matrix(0.05,0,0,0.05,12.950000000000001,0)" xlink:href="#af"/></g><path fill="#3a414a" d="M24-231v-30h32v30H24zM24 0v-190h32V0H24" id="ag"/><g id="j"><use transform="matrix(0.05,0,0,0.05,0,0)" xlink:href="#ag"/><use transform="matrix(0.05,0,0,0.05,3.95,0)" xlink:href="#O"/></g><path fill="#3a414a" d="M96-169c-40 0-48 33-48 73s9 75 48 75c24 0 41-14 43-38l32 2c-6 37-31 61-74 61-59 0-76-41-82-99-10-93 101-131 147-64 4 7 5 14 7 22l-32 3c-4-21-16-35-41-35" id="ah"/><path fill="#3a414a" d="M143 0L79-87 56-68V0H24v-261h32v163l83-92h37l-77 82L181 0h-38" id="ai"/><g id="k"><use transform="matrix(0.05,0,0,0.05,0,0)" xlink:href="#ae"/><use transform="matrix(0.05,0,0,0.05,12.950000000000001,0)" xlink:href="#Z"/><use transform="matrix(0.05,0,0,0.05,22.950000000000003,0)" xlink:href="#ah"/><use transform="matrix(0.05,0,0,0.05,31.950000000000003,0)" xlink:href="#ai"/><use transform="matrix(0.05,0,0,0.05,40.95,0)" xlink:href="#Q"/><use transform="matrix(0.05,0,0,0.05,50.95,0)" xlink:href="#R"/></g><linearGradient gradientUnits="userSpaceOnUse" id="l" x1="3719.94" y1="2003.29" x2="3811.01" y2="2003.28"><stop offset="0%" stop-color="#005ba1"/><stop offset="7%" stop-color="#0060a9"/><stop offset="36%" stop-color="#0071c8"/><stop offset="52%" stop-color="#0078d4"/><stop offset="64%" stop-color="#0074cd"/><stop offset="82%" stop-color="#006abb"/><stop offset="100%" stop-color="#005ba1"/></linearGradient><g id="m"><use transform="matrix(0.05,0,0,0.05,0,0)" xlink:href="#S"/><use transform="matrix(0.05,0,0,0.05,12.950000000000001,0)" xlink:href="#T"/><use transform="matrix(0.05,0,0,0.05,23.900000000000002,0)" xlink:href="#T"/><use transform="matrix(0.05,0,0,0.05,34.85,0)" xlink:href="#U"/></g><g id="n"><use transform="matrix(0.05,0,0,0.05,0,0)" xlink:href="#V"/><use transform="matrix(0.05,0,0,0.05,12.950000000000001,0)" xlink:href="#Q"/><use transform="matrix(0.05,0,0,0.05,22.950000000000003,0)" xlink:href="#aa"/><use transform="matrix(0.05,0,0,0.05,32.95,0)" xlink:href="#ag"/><use transform="matrix(0.05,0,0,0.05,36.900000000000006,0)" xlink:href="#Y"/><use transform="matrix(0.05,0,0,0.05,45.900000000000006,0)" xlink:href="#P"/><use transform="matrix(0.05,0,0,0.05,50.900000000000006,0)" xlink:href="#Q"/><use transform="matrix(0.05,0,0,0.05,60.900000000000006,0)" xlink:href="#R"/></g><path fill="#3a414a" d="M24 0v-261h32V0H24" id="aj"/><g id="o"><use transform="matrix(0.03703703703703704,0,0,0.03703703703703704,0,0)" xlink:href="#U"/><use transform="matrix(0.03703703703703704,0,0,0.03703703703703704,8.88888888888889,0)" xlink:href="#X"/><use transform="matrix(0.03703703703703704,0,0,0.03703703703703704,16.296296296296298,0)" xlink:href="#aj"/><use transform="matrix(0.03703703703703704,0,0,0.03703703703703704,19.222222222222225,0)" xlink:href="#aj"/></g><path fill="#3a414a" d="M212-179c-10-28-35-45-73-45-59 0-87 40-87 99 0 60 29 101 89 101 43 0 62-24 78-52l27 14C228-24 195 4 139 4 59 4 22-46 18-125c-6-104 99-153 187-111 19 9 31 26 39 46" id="ak"/><path fill="#3a414a" d="M101-234c-31-9-42 10-38 44h38v23H63V0H32v-167H5v-23h27c-7-52 17-82 69-68v24" id="al"/><path fill="#3a414a" d="M141-36C126-15 110 5 73 4 37 3 15-17 15-53c-1-64 63-63 125-63 3-35-9-54-41-54-24 1-41 7-42 31l-33-3c5-37 33-52 76-52 45 0 72 20 72 64v82c-1 20 7 32 28 27v20c-31 9-61-2-59-35zM48-53c0 20 12 33 32 33 41-3 63-29 60-74-43 2-92-5-92 41" id="am"/><g id="p"><use transform="matrix(0.03703703703703704,0,0,0.03703703703703704,0,0)" xlink:href="#ak"/><use transform="matrix(0.03703703703703704,0,0,0.03703703703703704,9.592592592592593,0)" xlink:href="#Z"/><use transform="matrix(0.03703703703703704,0,0,0.03703703703703704,17,0)" xlink:href="#O"/><use transform="matrix(0.03703703703703704,0,0,0.03703703703703704,24.407407407407405,0)" xlink:href="#al"/><use transform="matrix(0.03703703703703704,0,0,0.03703703703703704,28.111111111111114,0)" xlink:href="#ag"/><use transform="matrix(0.03703703703703704,0,0,0.03703703703703704,31.03703703703704,0)" xlink:href="#aa"/><use transform="matrix(0.03703703703703704,0,0,0.03703703703703704,38.44444444444445,0)" xlink:href="#X"/><use transform="matrix(0.03703703703703704,0,0,0.03703703703703704,45.851851851851855,0)" xlink:href="#R"/><use transform="matrix(0.03703703703703704,0,0,0.03703703703703704,50.25925925925927,0)" xlink:href="#am"/><use transform="matrix(0.03703703703703704,0,0,0.03703703703703704,57.66666666666667,0)" xlink:href="#P"/><use transform="matrix(0.03703703703703704,0,0,0.03703703703703704,61.37037037037037,0)" xlink:href="#ag"/><use transform="matrix(0.03703703703703704,0,0,0.03703703703703704,64.2962962962963,0)" xlink:href="#Z"/><use transform="matrix(0.03703703703703704,0,0,0.03703703703703704,71.70370370370371,0)" xlink:href="#O"/></g><path fill="#3a414a" d="M0 4l72-265h28L28 4H0" id="an"/><path fill="#3a414a" d="M106-169C34-169 62-67 57 0H25v-261h32l-1 103c12-21 28-36 61-36 89 0 53 116 60 194h-32v-121c2-32-8-49-39-48" id="ao"/><path fill="#3a414a" d="M68-38c1 34 0 65-14 84H32c9-13 17-26 17-46H33v-38h35" id="ap"/><g id="q"><use transform="matrix(0.05,0,0,0.05,0,0)" xlink:href="#an"/><use transform="matrix(0.05,0,0,0.05,5,0)" xlink:href="#am"/><use transform="matrix(0.05,0,0,0.05,15,0)" xlink:href="#X"/><use transform="matrix(0.05,0,0,0.05,25,0)" xlink:href="#P"/><use transform="matrix(0.05,0,0,0.05,30,0)" xlink:href="#ao"/><use transform="matrix(0.05,0,0,0.05,40,0)" xlink:href="#ap"/></g><g id="r"><use transform="matrix(0.05,0,0,0.05,0,0)" xlink:href="#an"/><use transform="matrix(0.05,0,0,0.05,5,0)" xlink:href="#X"/><use transform="matrix(0.05,0,0,0.05,15,0)" xlink:href="#Y"/><use transform="matrix(0.05,0,0,0.05,24,0)" xlink:href="#Q"/><use transform="matrix(0.05,0,0,0.05,34,0)" xlink:href="#R"/><use transform="matrix(0.05,0,0,0.05,39.95,0)" xlink:href="#Y"/></g><g id="s"><use transform="matrix(0.03703703703703704,0,0,0.03703703703703704,0,0)" xlink:href="#an"/><use transform="matrix(0.03703703703703704,0,0,0.03703703703703704,3.703703703703704,0)" xlink:href="#ah"/><use transform="matrix(0.03703703703703704,0,0,0.03703703703703704,10.370370370370372,0)" xlink:href="#am"/><use transform="matrix(0.03703703703703704,0,0,0.03703703703703704,17.77777777777778,0)" xlink:href="#P"/><use transform="matrix(0.03703703703703704,0,0,0.03703703703703704,21.48148148148148,0)" xlink:href="#Q"/><use transform="matrix(0.03703703703703704,0,0,0.03703703703703704,28.88888888888889,0)" xlink:href="#aa"/><use transform="matrix(0.03703703703703704,0,0,0.03703703703703704,36.2962962962963,0)" xlink:href="#Z"/><use transform="matrix(0.03703703703703704,0,0,0.03703703703703704,43.70370370370371,0)" xlink:href="#R"/><use transform="matrix(0.03703703703703704,0,0,0.03703703703703704,48.111111111111114,0)" xlink:href="#ag"/><use transform="matrix(0.03703703703703704,0,0,0.03703703703703704,51.03703703703704,0)" xlink:href="#Q"/><use transform="matrix(0.03703703703703704,0,0,0.03703703703703704,58.44444444444444,0)" xlink:href="#Y"/><use transform="matrix(0.03703703703703704,0,0,0.03703703703703704,65.11111111111111,0)" xlink:href="#ap"/></g><g id="t"><use transform="matrix(0.03703703703703704,0,0,0.03703703703703704,0,0)" xlink:href="#an"/><use transform="matrix(0.03703703703703704,0,0,0.03703703703703704,3.703703703703704,0)" xlink:href="#Q"/><use transform="matrix(0.03703703703703704,0,0,0.03703703703703704,11.111111111111112,0)" xlink:href="#O"/><use transform="matrix(0.03703703703703704,0,0,0.03703703703703704,18.51851851851852,0)" xlink:href="#P"/><use transform="matrix(0.03703703703703704,0,0,0.03703703703703704,22.22222222222222,0)" xlink:href="#R"/><use transform="matrix(0.03703703703703704,0,0,0.03703703703703704,26.62962962962963,0)" xlink:href="#ag"/><use transform="matrix(0.03703703703703704,0,0,0.03703703703703704,29.555555555555554,0)" xlink:href="#Q"/><use transform="matrix(0.03703703703703704,0,0,0.03703703703703704,36.96296296296296,0)" xlink:href="#Y"/><use transform="matrix(0.03703703703703704,0,0,0.03703703703703704,43.62962962962963,0)" xlink:href="#ap"/></g><g id="u"><use transform="matrix(0.03703703703703704,0,0,0.03703703703703704,0,0)" xlink:href="#an"/><use transform="matrix(0.03703703703703704,0,0,0.03703703703703704,3.703703703703704,0)" xlink:href="#am"/><use transform="matrix(0.03703703703703704,0,0,0.03703703703703704,11.111111111111112,0)" xlink:href="#ah"/><use transform="matrix(0.03703703703703704,0,0,0.03703703703703704,17.77777777777778,0)" xlink:href="#ah"/><use transform="matrix(0.03703703703703704,0,0,0.03703703703703704,24.444444444444446,0)" xlink:href="#Z"/><use transform="matrix(0.03703703703703704,0,0,0.03703703703703704,31.851851851851855,0)" xlink:href="#X"/><use transform="matrix(0.03703703703703704,0,0,0.03703703703703704,39.25925925925927,0)" xlink:href="#O"/><use transform="matrix(0.03703703703703704,0,0,0.03703703703703704,46.66666666666667,0)" xlink:href="#P"/><use transform="matrix(0.03703703703703704,0,0,0.03703703703703704,50.370370370370374,0)" xlink:href="#Y"/></g><path fill="#3a414a" d="M232-93c-1 65-40 97-104 97C67 4 28-28 28-90v-158h33c8 89-33 224 67 224 102 0 64-133 71-224h33v155" id="aq"/><g id="v"><use transform="matrix(0.05,0,0,0.05,0,0)" xlink:href="#aq"/><use transform="matrix(0.05,0,0,0.05,12.950000000000001,0)" xlink:href="#Y"/><use transform="matrix(0.05,0,0,0.05,21.950000000000003,0)" xlink:href="#Q"/><use transform="matrix(0.05,0,0,0.05,31.950000000000003,0)" xlink:href="#R"/><use transform="matrix(0.05,0,0,0.05,37.900000000000006,0)" xlink:href="#Y"/></g><path fill="#3a414a" d="M240 0l2-218c-23 76-54 145-80 218h-23L58-218 59 0H30v-248h44l77 211c21-75 51-140 76-211h43V0h-30" id="ar"/><path fill="#3a414a" d="M108 0H70L1-190h34L89-25l56-165h34" id="as"/><g id="w"><use transform="matrix(0.05,0,0,0.05,0,0)" xlink:href="#ar"/><use transform="matrix(0.05,0,0,0.05,14.950000000000001,0)" xlink:href="#ag"/><use transform="matrix(0.05,0,0,0.05,18.900000000000002,0)" xlink:href="#ah"/><use transform="matrix(0.05,0,0,0.05,27.900000000000002,0)" xlink:href="#R"/><use transform="matrix(0.05,0,0,0.05,33.85,0)" xlink:href="#Z"/><use transform="matrix(0.05,0,0,0.05,43.85,0)" xlink:href="#Y"/><use transform="matrix(0.05,0,0,0.05,52.85,0)" xlink:href="#Q"/><use transform="matrix(0.05,0,0,0.05,62.85,0)" xlink:href="#R"/><use transform="matrix(0.05,0,0,0.05,68.8,0)" xlink:href="#as"/><use transform="matrix(0.05,0,0,0.05,77.8,0)" xlink:href="#ag"/><use transform="matrix(0.05,0,0,0.05,81.75,0)" xlink:href="#ah"/><use transform="matrix(0.05,0,0,0.05,90.75,0)" xlink:href="#Q"/></g><path fill="#3a414a" d="M85-194c31 0 48 13 60 33l-1-100h32l1 261h-30c-2-10 0-23-3-31C134-8 116 4 85 4 32 4 16-35 15-94c0-66 23-100 70-100zm9 24c-40 0-46 34-46 75 0 40 6 74 45 74 42 0 51-32 51-76 0-42-9-74-50-73" id="at"/><g id="x"><use transform="matrix(0.05,0,0,0.05,0,0)" xlink:href="#af"/><use transform="matrix(0.05,0,0,0.05,12,0)" xlink:href="#X"/><use transform="matrix(0.05,0,0,0.05,22,0)" xlink:href="#at"/><use transform="matrix(0.05,0,0,0.05,32,0)" xlink:href="#aa"/><use transform="matrix(0.05,0,0,0.05,42,0)" xlink:href="#Q"/><use transform="matrix(0.05,0,0,0.05,52,0)" xlink:href="#P"/></g><g id="y"><use transform="matrix(0.05,0,0,0.05,0,0)" xlink:href="#T"/><use transform="matrix(0.05,0,0,0.05,10.3,0)" xlink:href="#R"/><use transform="matrix(0.05,0,0,0.05,16.25,0)" xlink:href="#am"/><use transform="matrix(0.05,0,0,0.05,26.25,0)" xlink:href="#ah"/><use transform="matrix(0.05,0,0,0.05,35.25,0)" xlink:href="#ai"/><use transform="matrix(0.05,0,0,0.05,44.25,0)" xlink:href="#Q"/><use transform="matrix(0.05,0,0,0.05,54.25,0)" xlink:href="#R"/></g><path fill="#3a414a" d="M30 0v-248h187v28H63v79h144v27H63v87h162V0H30" id="au"/><g id="z"><use transform="matrix(0.05,0,0,0.05,0,0)" xlink:href="#au"/><use transform="matrix(0.05,0,0,0.05,12,0)" xlink:href="#X"/><use transform="matrix(0.05,0,0,0.05,22,0)" xlink:href="#R"/><use transform="matrix(0.05,0,0,0.05,27.950000000000003,0)" xlink:href="#Q"/><use transform="matrix(0.05,0,0,0.05,37.95,0)" xlink:href="#ai"/><use transform="matrix(0.05,0,0,0.05,46.95,0)" xlink:href="#am"/></g><path fill="#3a414a" d="M87 75C49 33 22-17 22-94c0-76 28-126 65-167h31c-38 41-64 92-64 168S80 34 118 75H87" id="av"/><path fill="#3a414a" d="M179-190L93 31C79 59 56 82 12 73V49c39 6 53-20 64-50L1-190h34L92-34l54-156h33" id="aw"/><g id="A"><use transform="matrix(0.05,0,0,0.05,0,0)" xlink:href="#av"/><use transform="matrix(0.05,0,0,0.05,5.95,0)" xlink:href="#ae"/><use transform="matrix(0.05,0,0,0.05,18.900000000000002,0)" xlink:href="#ag"/><use transform="matrix(0.05,0,0,0.05,22.85,0)" xlink:href="#Y"/><use transform="matrix(0.05,0,0,0.05,31.85,0)" xlink:href="#ah"/><use transform="matrix(0.05,0,0,0.05,40.85,0)" xlink:href="#Z"/><use transform="matrix(0.05,0,0,0.05,50.85,0)" xlink:href="#as"/><use transform="matrix(0.05,0,0,0.05,59.85,0)" xlink:href="#Q"/><use transform="matrix(0.05,0,0,0.05,69.85,0)" xlink:href="#R"/><use transform="matrix(0.05,0,0,0.05,75.8,0)" xlink:href="#aw"/></g><path fill="#3a414a" d="M33-261c38 41 65 92 65 168S71 34 33 75H2C39 34 66-17 66-93S39-220 2-261h31" id="ax"/><g id="B"><use transform="matrix(0.05,0,0,0.05,0,0)" xlink:href="#ab"/><use transform="matrix(0.05,0,0,0.05,12,0)" xlink:href="#Q"/><use transform="matrix(0.05,0,0,0.05,22,0)" xlink:href="#R"/><use transform="matrix(0.05,0,0,0.05,27.950000000000003,0)" xlink:href="#as"/><use transform="matrix(0.05,0,0,0.05,36.95,0)" xlink:href="#Q"/><use transform="matrix(0.05,0,0,0.05,46.95,0)" xlink:href="#R"/><use transform="matrix(0.05,0,0,0.05,52.900000000000006,0)" xlink:href="#ax"/></g><g id="C"><use transform="matrix(0.05,0,0,0.05,0,0)" xlink:href="#ak"/><use transform="matrix(0.05,0,0,0.05,12.950000000000001,0)" xlink:href="#Z"/><use transform="matrix(0.05,0,0,0.05,22.950000000000003,0)" xlink:href="#O"/><use transform="matrix(0.05,0,0,0.05,32.95,0)" xlink:href="#al"/><use transform="matrix(0.05,0,0,0.05,37.95,0)" xlink:href="#ag"/><use transform="matrix(0.05,0,0,0.05,41.900000000000006,0)" xlink:href="#aa"/></g><g id="D"><use transform="matrix(0.05,0,0,0.05,0,0)" xlink:href="#ab"/><use transform="matrix(0.05,0,0,0.05,12,0)" xlink:href="#Q"/><use transform="matrix(0.05,0,0,0.05,22,0)" xlink:href="#R"/><use transform="matrix(0.05,0,0,0.05,27.950000000000003,0)" xlink:href="#as"/><use transform="matrix(0.05,0,0,0.05,36.95,0)" xlink:href="#Q"/><use transform="matrix(0.05,0,0,0.05,46.95,0)" xlink:href="#R"/></g></defs></g></svg>